<svg id="Laag_1" data-name="Laag 1" xmlns="http://www.w3.org/2000/svg" viewBox="0 0 1920 1920"><defs><style>.cls-1{fill:#fea301}.cls-1,.cls-10,.cls-11,.cls-12,.cls-14,.cls-15,.cls-16,.cls-2,.cls-3,.cls-4,.cls-5,.cls-6,.cls-7,.cls-8,.cls-9{stroke-width:0}.cls-2{fill:#fda100}.cls-3{fill:#080701}.cls-4{fill:#f3ac07}.cls-5{fill:#fe1203}.cls-6{fill:#16140b}.cls-7{fill:#1c190b}.cls-8{fill:#f1d201}.cls-9{fill:#f8d800}.cls-10{fill:#12110d}.cls-11{fill:#e8ce00}.cls-12{fill:#fba000}.cls-14{fill:#fefb00}.cls-15{fill:#151100}.cls-16{fill:#fca000}</style></defs><path d="M661 1488a711 711 0 0 1-187-322c-31-119-54-259-57-381-2-57 1-113 11-168 176-51 354-97 533-136 179 39 356 85 532 136l2 4c13 54 12 126 9 182-5 119-25 245-55 360a743 743 0 0 1-487 509 751 751 0 0 1-301-184Zm296-971c-32 4-75 17-107 24-131 31-260 66-389 102-3 2-4 14-5 18-7 46-5 98-3 145 6 117 25 248 57 361a707 707 0 0 0 451 469 711 711 0 0 0 444-444c22-71 38-154 49-228a1205 1205 0 0 0 9-321c-113-31-227-62-342-90l-131-31c-10-2-24-6-33-5Z" style="fill:#fede01;stroke-width:0"/><path class="cls-10" d="m1137 397 2-9 12-98c4-10 17-9 25-8 8 0 26 2 32 4 4 1 6 5 7 6l19-1c5 0 32 4 36 6 8 5 4 13 5 21l-14 102c5-5 11-2 17-3l-7-12c-5-26-3-73 25-88 17-8 59-5 75 5 7 4 24 20 24 29v31s-3 5 0 5l11-41c4-8 14-7 23-6 5 0 28 6 32 8 3 2 5 6 8 7h17c5 1 30 7 33 9l8 8v19l-43 164c-4 10-13 10-23 9-6-1-31-7-37-10-3-1-5-5-7-6h-15c-5-1-31-8-35-11l-6-5v-19c-8 6-16 10-26 11s-49-7-60-11c-11-5-27-26-24-39l-15 15c-3 3-12 6-16 7-10 1-50-4-61-8-9-3-25-20-25-30l-2 5c0 3 1 6-1 9l-5 6c-3 2-14 1-18 1-9-1-28-2-36-4l-3-3-23 1-33-4c-2-2-5-4-6-7v-21c1-24 5-51 7-76 2-28 2-60 6-87 1-4 4-9 7-11s25 0 30 0c16 1 53 3 66 12 9 6 19 17 20 29 2 15 0 46-6 59l-4 4 4 10v16Zm-68 55h1c0 5-2 16 5 18 14 0 31 5 45 3 3 0 4-2 5-4 3-27 6-54 7-80 1-5-6-16-6-18s6-8 7-11c5-11 6-47 2-58-7-19-29-25-48-27-14-2-40-4-54-3-7 1-7 7-8 14l-7 99-6 63c0 6-1 15 7 17l33 3c16 1 15-1 17-16Zm144-143h-1c0-6 2-14-6-17-6-2-36-5-43-4-3 0-4 3-6 5-6 52-14 103-19 154-1 13 13 32 25 36 8 3 43 8 52 7 22-2 32-18 36-38 8-44 11-89 18-133 0-12 3-16-10-19-7-1-36-5-42-2-4 2-3 7-4 11Zm137 92c9 1 30 10 35-2 3-8 6-33 5-41-5-41-82-55-105-22-7 10-12 43-11 54 1 17 10 24 21 35-10 0-27-9-32 4s-9 45-4 57c2 6 13 18 19 21 5 3 35 10 42 11 42 5 50-25 55-59 3-22 1-34-15-50l-10-8Zm115-29c0-7 2-14-6-18l-32-8c-5-1-13-1-16 4l-44 163c0 8-3 16 6 21l30 8c6 1 14 1 17-4 2-2 1-5 3-5 0 6-2 12 5 16s35 10 44 9c5-1 6-6 8-11 17-51 26-107 42-159 0-7 2-15-6-19l-32-8c-5-1-13-1-16 4l-3 7Zm-81 38h-15c7 7 12 17 13 27 1-10 7-22 8-32v-1l-6 6ZM771 329l-5-3c2 15 4 31 3 46l-2 9c0 2 5 7 7 10 4 9 12 61 13 74 1 8 2 17-5 22-4 2-29 6-35 7h-18l-6 4c-5 2-27 5-34 6h-17l-8 6-35 8c-7 1-18 2-23-4 1 4-4 9-7 11-4 2-28 7-34 8h-15c-3-1-8-7-9-10-2-10-2-26-3-37l-2-44c0-2 1-4-1-4-2 22-23 35-42 42l15 51c0 10 3 20-8 26s-36 11-48 10c-5 0-8-4-10-9l-47-162c-1-10-4-21 5-26 5-4 48-15 56-17 27-5 56-2 68 26l10 31-2-29c1-7-1-14-1-20v-29l7-6c4-3 42-10 49-11h16l9 10 30 82 11 29-16-110c1-12-4-23 11-27 21-5 65-10 86-6 6 2 11 4 15 8l12 12c0-7-3-26 0-32 3-4 8-5 12-6 25-3 56-5 80-6 6 0 20-1 24 2 2 1 7 6 8 9l1 17c0 9 2 22-8 25-3 1-19 1-19 3l6 78 5 46v18l-8 7c-5 2-29 5-36 5-9 1-17 2-23-8-6-47-8-95-12-142h-21Zm25-6 12 144c4 8 13 6 20 6 6 0 29-3 32-5 6-2 4-14 4-20l-4-36-7-91c0-2 0-2 2-3 5-2 21 2 24-5 2-3 1-17 1-21-1-15-3-19-19-18l-91 8-3 3c-2 3-1 18-1 22 0 5 1 16 9 17s14-1 21-1Zm-71 155c-1 11 7 12 16 11 7 0 27-4 34-6 8-2 6-10 6-16a504 504 0 0 0-14-75c-2-3-8-7-8-9l4-11c4-27-2-70-36-74-26-3-54 4-80 8-6 2-4 15-4 20 2 31 9 68 14 98 4 24 7 47 12 70 3 6 7 5 14 5 11-1 24-6 36-6l5-5 1-10Zm-126 3c6 6 8 29 16 32h10c7-1 28-5 34-8 8-3 7-12 6-19-4-17-17-44-23-61l-35-98c-3-8-12-7-19-6s-41 7-46 9c-7 3-6 9-6 16 2 58 7 117 11 176 2 6 12 6 17 5l33-8c2-1 4-4 4-6 1-11-2-22-2-32Zm-114-6c18-4 42-18 44-38 2-16-4-40-10-55-5-12-17-23-31-24-29-3-57 9-85 17-5 4-3 13-3 19 16 55 31 110 49 165 3 4 11 4 16 3l31-10c8-4 6-12 6-20l-17-57Z"/><path class="cls-3" d="m1532 671-1-2-2-95c-5 1-19 2-24 0-8-5-4-15-5-24l39-138c0-2 4-7 6-8 3-2 15-3 18-2l7 5c2 3 1 11 1 14l1 63c0 7 2 15 1 22 6-1 25-3 28 5l1 12c0 8-4 21-6 29l-29 106-5 12-2 2-1 1c-5 1-17 2-21 0-1 0-6-7-6-2Zm35-158-1-98c-1-8-12-9-17-6-4 1-5 8-6 11-15 43-24 90-38 134-2 22 14 16 29 13 2 16 1 32 1 49l1 6c0 10-2 39 2 46 2 6 18 4 20-3l38-137c0-6 3-15-5-18l-14 1c-4 0-6 3-10 2ZM368 680c-2-2-4-3-5-6l-42-139c-2-24 5-25 28-22 1-33-2-65 0-98 3-7 15-7 22-6 3 0 6 4 8 7l44 140v17l-7 7h-21s-1-2-1 0l1 94c-3 0-5 5-8 6h-19Zm21-108c18 4 31 9 28-15l-42-136c-3-9-21-9-22 0s1 18 1 26c0 25-1 49 1 73-16-2-32-9-29 14 15 43 25 87 40 130 1 3 3 11 7 12l12 1c8-3 4-18 4-24v-81Z"/><path class="cls-10" d="M895 266h53c2-1 4 3 5 3l3-2c2-1 46-2 51-1 2 0 7 4 8 7v20c-5 28-25 60-31 89v72c-1 3-5 7-8 9h-52c-3-1-6-5-8-7l1-74-29-93c0-9-3-18 7-23Zm57 16c0-5-2-9-7-11h-45c-8 1-7 13-6 18 5 28 22 61 29 90-2 24 0 48-1 73 0 2 3 5 6 6h44c3 0 4-2 5-4l2-76 31-92c0-6 1-14-6-15-13-2-30 1-43 0-5 2-6 5-7 10 0 1 1 1-2 1Z"/><path class="cls-7" d="M1559 673c-1 1 0 3-3 4l-17 1-7-7c0-5 5 2 6 2 4 2 16 1 21 0ZM368 680h19c3-1 5-6 8-6-1 10-16 10-23 9l-4-3ZM1560 672l2-2-2 2Z"/><path class="cls-9" d="m1465 372 3-7c3-5 11-5 16-4l32 8c8 4 6 11 6 19-16 52-25 108-42 159-2 5-3 10-8 11-9 1-37-5-44-9s-5-10-5-16c-2 0-1 3-3 5-3 5-11 5-17 4l-30-8c-9-5-6-13-6-21l44-163c3-5 11-5 16-4l32 8c8 4 6 11 6 18Zm-9 58c-1 1-10-2-11-3l15-58c1-4 0-8-4-10l-30-8c-2 0-9-1-11 1l-44 166c0 3-1 7 1 9l35 11c3 0 6 0 8-2l21-75 11 2-20 72c0 4-1 7 3 9l34 10c3 0 6 1 8-2l45-173c-1-6-13-7-18-9-5-1-22-6-27-3l-16 63Zm5-39c0-4-1-4-1 0h1Zm-1 4c0-4-1-4-1 0h1Zm-1 4c0-4-1-4-1 0h1Zm-1 4c0-4-1-4-1 0h1Zm-2 8 1-7c-2 0-3 7-1 7Zm-1 4c0-4-1-4-1 0h1ZM1212 309c0 2-4 28-2 28 2-9 2-19 3-28 1-4 0-9 4-11 6-3 35 1 42 2 13 3 10 7 10 19-7 44-10 89-18 133-4 20-14 36-36 38-9 1-44-4-52-7-12-4-26-23-25-36 5-51 13-102 19-154 2-2 3-5 6-5 7-1 37 2 43 4 8 3 6 10 6 17Zm-22 141-1-3c6-49 14-98 18-146l-1-3-32-5c-14-1-13 1-15 14l-10 83c-3 30-18 69 15 88 14 1 33 8 48 8 9 0 23-10 28-18 6-11 8-34 10-48 5-32 12-72 14-104 0-2 1-8-2-9-3-2-27-5-31-5s-11-1-12 3l-20 141c-1 5-5 8-9 4Zm19-105v-7h-1v7h1Zm-1 8v-7h-1v7h1Z"/><path class="cls-8" d="m1350 401 10 8c16 16 18 28 15 50-5 34-13 64-55 59-7-1-37-8-42-11-6-3-17-15-19-21-5-12-1-45 4-57s22-4 32-4c-11-11-20-18-21-35-1-11 4-44 11-54 23-33 100-19 105 22 1 8-2 33-5 41-5 12-26 3-35 2Zm-34 77c-3 1-8-1-9-5-1-6 6-24 6-33 0-3 0-5-4-7-5-2-26-5-32-6-5 0-7 0-9 5-4 9-7 34-6 43s11 24 19 28l42 10c22 3 36-10 42-31 7-29 13-49-12-71-5-5-25-18-27-24 0-3 4-26 6-28 3-2 7 0 7 3 1 9-10 28 1 32l30 6c3 0 8 1 10-3l5-25c3-29-19-44-46-48-18-2-38-1-49 15-8 10-13 45-10 57 6 21 41 36 44 47 0 3-6 34-8 35ZM1070 452l5-51v-9l-6 60c-2 15-1 17-17 16l-33-3c-8-2-7-11-7-17l6-63 7-99c1-7 1-13 8-14 14-1 40 1 54 3 19 2 41 8 48 27 4 11 3 47-2 58-1 3-7 9-7 11s7 13 6 18c-1 26-4 53-7 80-1 2-2 4-5 4-14 2-31-3-45-3-7-2-5-13-5-18Zm0-67c5 0 9 2 10 7 1 6-1 15-1 21l-4 39c0 4-2 12 4 13l28 3c3 0 11 1 13-1l3-20c2-15 6-52 2-65l-7-11c0-2 8-9 9-12 5-9 7-41 4-51-7-25-36-27-58-29l-27-2c-13 0-15-2-16 11-3 28-4 58-6 86-2 25-6 51-7 76 0 4-1 8 5 10l32 3c3 0 6 1 8-1l8-77Z"/><path class="cls-7" d="M1070 452h-1l6-60v9l-5 51Z"/><path class="cls-4" d="M1213 309c-1 9-1 19-3 28-2 0 2-26 2-28h1Z"/><path class="cls-9" d="m725 478-1 10-5 5c-12 0-25 5-36 6-7 0-11 1-14-5-5-23-8-46-12-70-5-30-12-67-14-98 0-5-2-18 4-20 26-4 54-11 80-8 34 4 40 47 36 74l-4 11c0 2 6 6 8 9 2 2 3 7 4 10 4 16 9 48 10 65 0 6 2 14-6 16-7 2-27 6-34 6-9 1-17 0-16-11Zm-17-69c7 0 9-1 11 6 6 18 6 43 10 62 1 3 1 6 5 7s32-4 37-5 5-3 5-8c-5-22-5-46-10-67-3-9-9-15-16-20 6-6 9-15 9-24s-4-33-9-41c-6-10-17-15-29-16-23-2-48 5-72 8l-2 2a3637 3637 0 0 0 21 152c1 4 4 24 6 27s5 2 8 2c6-1 28-4 32-6l5-4-11-75Z"/><path class="cls-8" d="M599 481c0 10 3 21 2 32 0 2-2 5-4 6l-33 8c-5 1-15 1-17-5-4-59-9-118-11-176 0-7-1-13 6-16 5-2 39-8 46-9s16-2 19 6l35 98c6 17 19 44 23 61 1 7 2 16-6 19-6 3-27 7-34 8h-10c-8-3-10-26-16-32Zm5-7c4 9 6 22 10 30 3 5 5 4 9 4l34-8c5-2 3-7 2-12l-32-86c-8-22-15-51-25-71-3-6-5-6-12-5-8 1-38 6-45 9s-3 10-3 15c1 50 4 102 8 151 0 4 1 16 3 19 1 3 7 2 9 2l30-7c5-2 4-7 4-13 0-3-4-25-3-26l11-2ZM485 475l17 57c0 8 2 16-6 20l-31 10c-5 1-13 1-16-3-18-55-33-110-49-165 0-6-2-15 3-19 28-8 56-20 85-17 14 1 26 12 31 24 6 15 12 39 10 55-2 20-26 34-44 38Zm-7-4c16-3 42-15 46-33 2-14-4-38-9-51-11-29-38-27-63-21-6 2-44 12-46 14s-1 8-1 11c17 55 31 110 49 165 2 2 6 1 9 1l31-10c5-2 5-5 4-10l-20-66ZM796 323c-7 0-15 2-21 1-8-1-9-12-9-17 0-4-1-19 1-22l3-4 91-7c16-1 18 3 19 18 0 4 1 18-1 21-3 7-19 3-24 5-2 1-2 1-2 3l7 91 4 36c0 6 2 18-4 20-3 2-26 5-31 5-8 0-17 2-21-6l-12-144Zm52-9c5-1 25 0 27-4 1-3 0-25-2-28s-6-3-10-3a1300 1300 0 0 0-90 8c-3 1-2 17-2 20 1 9 2 12 12 12l18-2 12 147c2 5 8 4 12 4 5 0 30-3 33-5 1 0 2-1 2-3l-12-146Z"/><path class="cls-11" d="M1567 513c4 1 7-2 10-2l14-1c8 3 5 12 5 18l-38 137c-2 7-18 9-20 3-4-7-2-36-2-46l-1-6c0-17 1-33-1-49-15 3-31 9-29-13 14-44 23-91 38-134 1-3 2-10 6-11 5-3 16-2 17 6l1 98Zm-5 7-1-103c0-5-7-5-10-3l-5 17c-13 42-24 85-36 128 0 13 22 1 29 1l1 49 1 6c0 7-1 47 1 50 2 2 6 2 9 0l3-7c15-43 23-91 37-134 0-2 1-8-3-9l-26 5Z"/><path class="cls-8" d="M389 572v81c0 6 4 21-4 24l-12-1c-4-1-6-9-7-12-15-43-25-87-40-130-3-23 13-16 29-14-2-24-1-48-1-73 0-8-2-17-1-26s19-9 22 0l42 136c3 24-10 19-28 15Zm-20-149c0-6-10-6-11 0v21l1 6c0 26-1 52 1 77-1 2-32-12-29 2l42 139c3 6 11 6 12-1l-1-11v-90c9-2 30 13 28-5l-43-138ZM952 282c3 0 2 0 2-1 1-5 2-8 7-10 13 1 30-2 43 0 7 1 6 9 6 15l-31 92-2 76c-1 2-2 4-5 4h-44c-3 0-6-4-6-6 1-25-1-49 1-73-7-29-24-62-29-90 0-5-2-17 6-18h45c5 2 7 6 7 11Zm0 23c-1-5-4-27-8-28-2-1-37-2-41-1-7 1-4 9-2 14 6 28 18 56 26 84 2 23-3 52 0 75 0 2 1 3 4 4 11-1 26 2 38 0 5-1 5-8 5-12 2-22-1-45 0-66l31-91c0-3 1-7-4-8-10-2-27 1-38 0-4 1-7 21-9 26 0 1 0 3-2 3Z"/><path class="cls-14" d="m1180 1242-2-2 10-8c15-14 28-32 38-49l-28 18c-4 2-34 16-36 15-2-2-4-16-4-19-8-32-25-69-52-91-1-1-1-2-3-2a200 200 0 0 1 33 105c0 6 0 7-6 10-21 11-41 11-62 11-8 0 3 6 5 7 17 8 43 6 61 4 3 3-12 11-15 13-24 15-51 25-79 33 1 2 3 2 4 2 18 1 43-1 59-5 13-3 25-10 37-14 3 3-13 13-15 14-27 16-58 22-88 24l-9 2c35 15 71 10 104-5 5 0-6 14-7 15-31 39-75 43-118 20-33-18-46-33-30-70 4-10 19-35 28-38l21-5c38-11 49-42 23-73-1 4 2 9 2 14 1 10-1 25-14 24-10 0-22-5-31-5-12 0-27 5-39 5-20 1-37-5-57-4-7 0-18 4-24 4-16 0-14-26-9-36l-2-1-10 15c-13 27 5 49 31 57 7 3 16 3 22 5 15 6 30 35 33 50 7 27-3 38-24 52-46 31-101 28-133-20-11-16 6-5 14-2 27 9 62 11 88-2-31-5-61-7-89-21-3-2-20-13-21-15 0-1-1-4 1-3l18 8c26 9 52 12 80 9 0-2-2-2-3-2-29-11-51-16-78-33-2-1-17-9-14-12 18 2 40 5 58-3 3-1 15-8 7-8-13 1-20 1-33-2-5-1-32-9-34-14-1-3 2-19 2-23 3-20 8-40 16-58l16-29c-26 20-45 52-54 84l-6 27c-2 1-17-6-20-7-14-6-26-13-38-22l-4-1c10 21 28 37 44 53 3 3 1 4-3 5s-24-1-28-2c-2-1-16-17-18-21-1-1-5-6-4-7l5-1c-8-4-10-5-15-12-39-54-46-147-30-210 5-17 20-53 18-68-2-11-19-23-27-31-9-10-17-21-21-33 0-2 3-1 4-1 4 1 14 9 20 12 10 5 31 12 43 12 9 0 25-14 32-20 28-25 51-55 67-88-1-1-6 4-7 5-8 6-34 30-42 31s-14-6-19-12c-2-3-17-23-17-26l2-2c2 0 15 11 19 12l1-3c-21-20-41-45-64-64-31-24-83-37-79 21 2 22 17 48 29 66l22 28c0 2-2 2-3 2-9-3-19-21-18 4l-2 1c-4-2-29-52-31-59-12-29-26-73 5-95 38-28 91 24 123 43 26 16 47 26 78 14l24-11c4 1-5 15 1 17 11 6 40-18 46-27 4-7 2-15 9-19s30-9 39-12l40-7 2 2c-1 3-13 14-12 18s23 22 26 28l4 1 28-29c1-3-13-13-11-19 16 1 32 4 47 8 8 2 28 7 34 11 5 2 3 7 5 11 4 14 23 29 37 33 20 7 11-5 12-17 16 8 34 18 53 18 52-1 106-82 157-70 60 15 26 97 8 132l-18 30-4-15c-2-2-13 7-15 8l-2-3 19-25c16-24 40-67 24-96-13-22-42-11-60-1s-31 27-46 40l-31 33c0 2 0 2 2 2 4-1 17-12 19-11l1 2c-7 9-19 35-30 38-9 2-19-8-26-13-8-6-17-16-25-21-1 0-2-2-4-1a305 305 0 0 0 92 106c6 3 23-2 31-4s17-6 24-10l17-11c5-1-2 12-3 14l-14 20c-9 9-27 21-29 35-1 11 10 38 14 51 19 70 18 154-21 217-4 7-10 18-20 18-1 3 3 1 5 3 1 1 0 2-1 4a111 111 0 0 1-21 25h-31ZM911 691c-8 0-21 6-26 11-7 5-17 17-4 20 10 3 29-13 35-20 4-6 2-11-5-11Zm99 0c-15 3 8 22 13 25 8 5 29 13 25-4-3-9-29-23-38-21Zm-80 73c4-5 8-15 9-22 1-5 1-30-9-21-6 4-13 23-13 31s4 19 13 12Zm59-45c-10 2-3 31 0 37 8 15 17 10 17-5 0-6-9-34-17-32Zm-110 18c-7 1-17 5-22 9-4 3-12 10-5 13s21-3 27-8c8-6 16-15 0-14Zm159 0c-8 3 8 15 11 17 5 3 26 12 25 0-2-9-28-19-36-17Zm-75 7-2 1c-4 4-12 16-14 21-2 4-7 13-7 18 0 4 20 31 22 30 2 0 19-23 20-26 5-13-14-33-19-44Zm-65 14c-13 3-29 38-13 48s22-14 22-25c1-8 1-25-9-23Zm124 0c-8 2-6 14-6 19 0 8-1 12 3 20 5 12 22 15 26 1 2-12-9-43-23-40Zm115 14c-1-1-3 1-2 1 1 1 3-1 2-1Zm-290 4-8-2c-8 0-33 8-30 18 2 6 17 1 21-1 4-1 20-10 17-15Zm234-2c-11 3 2 11 6 14s27 13 27 3-25-19-33-17Zm-79 43c-4-4-9 8-10 11-3 8-6 24-2 32 2 4 8 1 10-2 5-7 7-18 6-26l-4-15Zm-79 0c-6 2-6 21-6 25 1 7 5 22 13 20 8-1 4-25 3-30-1-4-5-16-10-15Zm-66 1c-16 2-53 14-51 35s36 8 48 2c20-11 48-41 3-37Zm196 0c-9 2-15 8-9 16 9 14 40 32 56 31 7-1 14-4 15-11 4-26-43-39-62-36Zm-93 13-4 9c-4 9-5 18-4 28 1 11 9 32 17 11 6-13 4-29-2-42-1-2-3-8-7-6Zm-100 317c4-32 26-58 28-91 3-57-48-90-19-151 6-11 31-45 3-42-13 1-25 12-33 21-28 34-1 52 14 82 0 1 2 4-1 4l-21-9c-30-9-50 0-78-3-9-1-17-5-25-8 3 9 13 17 21 21l11 5c7 5 11 18 16 26 15 24 38 28 59 43 23 16 19 32 20 58 1 12-1 31 3 43 0 1-1 1 2 1Zm337-198c-8 3-16 8-26 9-33 3-53-8-87 7l-13 6c-1 0-2-2-1-3 7-16 27-38 26-56-1-17-15-35-30-43-8-5-29-13-28 2 1 12 17 33 21 46 18 53-29 91-23 143 4 32 24 58 29 89l3-10c3-22-3-65 8-82 17-24 55-26 74-59 4-6 7-19 13-22l10-3c10-5 19-14 24-24Zm-373-2-1-3c-5-6-14-13-16-22-3-19 27-48-14-36-13 4-42 19-46 32-2 6-2 14 2 18 9 7 40 6 52 7l23 4Zm96-64-4 12v14c1 5 7 22 13 22 9-1 3-27 2-33-1-3-7-18-11-15Zm79 46c8-8 10-30 7-40-1-4-3-8-7-4-6 6-11 30-10 38 1 7 4 11 10 6Zm100 18 26-4c11-1 38 0 47-6s6-16 0-23c-9-13-30-24-44-28-5-2-17-5-20 0-2 5 8 24 9 31 1 12-12 20-18 30Zm-381-45-8 6c-7 7-22 29-17 39 4 9 14-5 17-9 4-6 9-14 11-21 1-5 5-17-3-15Zm484 0c-3 1-1 10 0 12 2 9 14 34 24 36 8 1 4-13 3-18-2-7-12-20-18-26-3-2-6-5-9-4Zm-238 6h-3l-6 14a87 87 0 0 0 4 66c5 7 10-6 11-10a89 89 0 0 0-6-70Zm-241 53c-12 16-21 36-23 57-3 28-2 50 20 70 27 23 62 18 89-1 1 0 7-4 5-6l-17-1c-25-4-49-13-63-34-18-26-15-56-11-85Zm478 1c1 32 7 63-15 89-19 22-47 29-75 30-3 2-2 2 0 3 18 16 51 24 73 16 21-8 39-29 41-51 2-31-5-63-24-87Zm-519 21c-2 0-2 1-3 2-7 9-12 38-11 49 2 18 15 18 17 0 2-16-1-34-3-51Zm570 64c2-2 4-12 4-16 1-11-3-28-8-39 0-1-4-10-6-8-2 16-5 35-3 51 1 6 6 17 13 12Zm-446-7c-15-11-30-18-41-33-1-1-5-10-7-8-5 28 25 40 48 41Zm359-40c-2-1-2 1-2 1-15 19-23 23-42 36-1 1-2 1-2 3 19 0 46-12 47-34l-1-6Zm-423 166c0-2-1-2-2-3-8-7-15-10-23-19-20-23-23-42-30-70l-2-3c-6 18-11 38-8 57 6 33 34 48 65 38Zm440-2c-1 2 12 5 14 5 25 3 46-13 51-38 4-21-2-40-8-60l-11 39c-9 22-24 43-46 54Zm-459-46c1 7 8 13 14 17 18 11 20-3 5-11-6-4-13-5-19-6Zm478 0c-8 1-25 6-27 15-2 7 3 6 7 5 9-3 17-11 20-20Zm-502 65c1-1-1-3-1-2-1 1 1 3 1 2Z"/><path class="cls-1" d="m1205 1270 16-7c6-3 12-9 19-12 21 0 43 1 64 3 0-2-3-2-4-2-16-3-34-4-51-6-5-1-3-3-1-7 5-3 15-21 19-23 8-4 29 3 39 1l-32-6-3-2 14-33c19-54 18-116 6-172-4-19-13-41-16-59 0-5 0-7 2-12 11-20 29-42 41-61 26-40 70-106 70-153s-32-80-78-77c-51 3-79 43-119 65-42 23-77-6-113-22-76-34-143-41-220-5-42 20-76 54-127 27-47-25-87-86-152-59-57 22-48 89-27 134 25 54 65 105 97 154l1 3c-10 39-23 77-25 117-2 44 1 84 16 124l12 28-4 3c-9 3-22 3-31 5l-3 2 33-3c7 0 7-1 12 5l19 23c-1 2-2 3-4 3l-38 4-16 3 64-2c14 9 26 20 43 19 1 3-5 3-7 3l-71 4c-22 2-44 7-65 9l-2-2c-5-5-12-23-15-29-46-99-70-239-83-348-9-81-14-164-5-245 160-43 320-86 482-121 161 35 320 77 479 122a755 755 0 0 1 5 128c-3 98-18 196-38 292-16 70-34 141-70 203-21-3-43-7-65-9l-50-4h-15c-2 0-4-2-3-3Zm17-606c-87-21-174-44-261-63-87 19-174 41-260 64 18 12 36 32 59 34 37 4 61-20 92-35 78-36 147-32 225 2 41 18 82 54 124 14l21-16Zm92 537a1705 1705 0 0 0 74-416l-13 26c-25 45-53 88-83 130 17 55 29 111 24 169-2 30-10 59-21 86 0 2 16 4 19 5Zm-684-4-14-39c-11-45-11-104-2-150 5-23 12-44 18-66-30-43-58-86-84-131l-13-25a1519 1519 0 0 0 75 415c6 0 14-4 20-4ZM1280 1375l-1 4a708 708 0 0 1-281 218c-6 2-32 13-37 13l-18-6a705 705 0 0 1-291-214c-3-3-12-12-7-15 3-3 13-7 18-9 29-14 63-27 95-35 6-1 19-6 25-4 3 1 10 7 7 10-17 9-33 16-49 27-18 12-33 28-48 43l-8 11c1 1 5-3 6-4 31-25 58-43 95-57 5-3 17-8 22-7 2 1 12 7 10 10l-20 13c-26 19-44 46-56 75l22-28c16-15 34-29 53-39 5-3 24-13 28-12 6 2 4 17 4 22 3 41 29 66 58 91 0-9-3-17-2-26 4-1 6 2 8 5 8 8 13 20 20 29 3-4 0-19 7-15l22 42c5-6 17-39 22-42s4 10 5 12c3 4 6-4 7-6 3-4 18-28 21-27 5 7 1 18-1 26 0 1-1 2 1 2 27-26 54-47 57-87 0-5-1-20 1-24 4-6 17 2 22 4 33 17 62 40 83 70-10-26-27-51-49-68-8-7-18-11-26-19l2-2 11-7a372 372 0 0 1 93 47l28 22-8-11c-28-30-59-55-98-70-1-1 8-11 9-12a547 547 0 0 1 138 50Zm-505 60c7 4 12 10 19 15 49 41 107 74 167 98 56-22 109-52 156-89l28-22 3-4a156 156 0 0 0-47-36l-10-5c1 34-18 59-40 82-5 5-21 20-26 23l-8 2c-4 0-9-3-10-3s-6 7-9 8l-11 1-10 22c-5 7-14 10-23 5s-14-24-15-25h-8c-8-1-13-10-14-10-4-1-8 5-17 0-6-2-24-20-30-26-20-22-37-47-38-78-16 8-34 18-47 30-2 2-11 11-10 12Zm-90-16c-1-1-3 1-2 1 1 1 3-1 2-1Zm557 1c-1-1-3 1-2 1 1 1 3-1 2-1Z"/><path class="cls-14" d="m999 1450-2-19c0-1-1-6-2-5-7 3-19 29-21 29l-4-1c-1-1-7-21-9-20l-9 21c0 1 0 3-1 2-4-2-17-32-22-32l-4 25h-3l-17-17c-11-9-31-22-37-35-2-5-5-20-3-25 2-3 8-2 11-2 17-3 28-13 42-18 13-5 21 4 32 7s18 2 28-1c10-4 17-11 27-7 13 5 22 13 37 17 14 4 19-1 17 19-2 18-25 32-37 42l-19 19-4 1Z"/><path class="cls-1" d="m612 1336-27-48c27-3 55-5 82-6 28-1 64-4 91 0 5 1 9 9 3 12-8 3-24 3-33 5-40 8-79 21-116 37ZM1193 1280c41 0 95 1 135 7 2 0 9 1 9 3s-21 37-24 41l-4 4c-40-17-82-30-124-38-5-1-20-2-23-4-4-2-2-9 2-10l8-2 21-1ZM760 1306c3 0 7-1 10 1 2 1 5 6 1 7-47 12-91 34-131 60l-24-33c-1-3 2-3 4-4 30-14 106-29 140-31ZM1155 1306a665 665 0 0 1 130 25l20 6 2 2c0 4-20 30-24 34l-29-17c-22-12-45-23-69-32-8-3-24-6-31-10-4-2-3-7 1-8Z"/><path class="cls-14" d="M734 1272c-1-3 2-5 3-7 1-6-15-13-13-15l32 1c6-1 4 17 3 19-4 3-19 0-25 2ZM1191 1269l-1 3c-2 1-21-2-25-2-2 0-1-8-1-11 1-7 4-7 12-8l22-1c3 3-5 7-7 8-4 4-6 9 0 11Z"/><path class="cls-6" d="m1456 430 16-63c5-3 22 2 27 3 5 2 17 3 18 9l-45 173c-2 3-5 2-8 2l-34-10c-4-2-3-5-3-9l20-72-11-2-21 75c-2 2-5 2-8 2l-35-11c-2-2-1-6-1-9l44-166c2-2 9-1 11-1l30 8c5 2 5 6 4 10l-15 58c1 1 10 4 11 3Zm-2-66-34-8-44 167 35 9 20-77 2-1c6 0 15 5 21 5l-21 79 34 10 45-168-2-1-30-8h-3l-16 66c-1 1-22-4-23-5v-2l16-66Z"/><path class="cls-4" d="M1456 411c-2 0-1-7 1-7l-1 7ZM1459 399h-1c0-4 1-4 1 0ZM1460 395h-1c0-4 1-4 1 0ZM1461 391h-1c0-4 1-4 1 0ZM1455 415h-1c0-4 1-4 1 0ZM1458 403h-1c0-4 1-4 1 0Z"/><path class="cls-6" d="M1190 450c4 4 8 1 9-4l20-141c1-4 8-3 12-3s28 3 31 5c3 1 2 7 2 10-2 31-9 71-14 103-2 14-4 37-10 48-5 8-19 18-28 18-15 0-34-7-48-8-33-19-18-58-15-88l10-83c2-13 1-15 15-14l32 5 1 3c-4 48-12 97-18 146l1 3Zm12-148-36-4c-5 48-11 97-18 145 0 13 11 27 24 31l39 6c12 0 27-14 29-27l19-142c-10 0-21-3-31-4l-5 1-2 15-17 127c-4 12-22 7-20-5l18-143Z"/><path class="cls-4" d="M1207 346h1v7h-1zM1208 338h1v7h-1z"/><path class="cls-7" d="M1316 478c2-1 8-32 8-35-3-11-38-26-44-47-3-12 2-47 10-57 11-16 31-18 49-15 27 4 49 19 46 48l-5 25c-2 4-7 3-10 3l-30-6c-11-4 0-23-1-32 0-3-4-5-7-3-2 2-6 25-6 28 2 6 22 19 27 24 25 22 19 42 12 71-6 21-20 34-42 31l-42-10c-8-4-18-19-19-28s2-34 6-43c2-5 4-5 9-5 6 1 27 4 32 6 4 2 4 4 4 7 0 9-7 27-6 33 1 4 6 6 9 5Zm24-90c10 0 21 5 31 6l4-1 4-22c2-23-15-36-36-40-40-9-55 10-58 48-1 12 3 22 11 31 9 9 34 22 34 34 0 5-6 31-8 35-4 9-20 5-21-6 0-5 8-32 6-34-10 0-22-6-31-6l-3 1c-1 15-9 31-4 46 2 6 11 15 17 18l42 10c10-1 20-6 25-14s13-43 12-53-8-18-15-25c-9-8-29-18-30-30l5-27c3-7 10-9 17-5 7 5-1 26-2 34ZM1070 385l-8 77c-2 2-5 1-8 1l-32-3c-6-2-5-6-5-10 1-25 5-51 7-75 2-29 3-59 6-87 1-13 3-11 16-11l27 2c22 2 51 4 58 29 3 10 1 42-4 51-1 3-9 10-9 12l7 11c4 13 0 50-2 65l-3 20c-2 2-10 1-13 1l-28-3c-6-1-4-9-4-13l4-39c0-6 2-15 1-21-1-5-5-7-10-7Zm35-17c13-2 19-14 21-26 2-13 3-32-7-43-16-18-60-13-83-17l-13 172 35 4 6-76c0-4 4-3 6-3 8 1 15 3 16 12l-6 69 36 3c1-24 5-48 5-72-1-7-4-12-10-17-1-1-7-4-6-6Z"/><path class="cls-6" d="m708 409 11 75-5 4c-4 2-26 5-32 6-3 0-6 1-8-2-2-2-5-23-6-28l-19-129c0-5-3-19-2-22l2-2c24-3 49-10 72-8 12 1 23 6 29 16 5 8 9 32 9 42 0 8-3 17-9 23 7 5 13 11 16 20 5 21 5 45 10 67 0 5 0 6-5 8s-33 6-37 5-4-4-5-7c-4-19-4-44-10-62-2-7-4-6-11-6Zm63 64-12-69c-3-11-11-15-21-18 5-4 11-9 13-15 4-11 0-41-7-50-17-24-67-7-91-6l25 173 34-5 2-1-12-78c16-2 20-2 24 14 4 20 5 41 9 61l36-6Z"/><path class="cls-7" d="m604 474-11 2c-1 1 3 23 3 26 0 6 1 11-5 13-4 2-23 6-29 7-2 0-8 1-10-2l-2-19c-4-49-7-101-8-151 0-5-4-12 3-15s37-8 45-9 9-1 12 5c10 20 17 49 25 71l32 86c1 5 3 10-2 12l-34 8c-4 0-6 1-9-4-4-8-7-21-10-30Zm-8-143-49 9 10 177 34-8-4-36c0-1 19-7 22-4 2 4 9 31 11 33 3 2 29-7 35-7l-59-164ZM478 471l20 66c1 5 1 8-4 10l-31 10c-3 0-7 1-9-1-18-55-32-110-49-165 0-3-1-9 1-11s40-12 46-14c25-6 52-8 63 21 5 13 11 37 9 51-4 18-30 30-46 33Zm30-21c7-5 11-13 11-22s-9-41-15-48c-19-27-69 0-94 4l48 167c4 0 33-9 34-11l-21-73c13-4 27-7 37-17ZM848 314l12 146c0 2-1 3-2 3-3 2-28 5-32 5-5 0-11 1-13-4l-12-147-18 2c-10 0-11-3-12-12 0-3-1-19 2-21l10-1c25-3 55-5 80-6 4 0 8 0 10 3s3 25 2 28c-2 4-22 3-27 4Zm6 145-12-148v-2c4-2 25-1 27-2 2-2-1-18 0-21-2-2-10-1-12-1-24 1-48 4-71 6h-10l2 22c1 1 22-2 26-2l2 2 13 150 35-4Z"/><path class="cls-15" d="m1562 520 26-5c4 1 3 7 3 9-14 43-22 91-37 134l-3 7c-3 2-7 2-9 0-2-3-1-43-1-50l-1-6-1-49c-7 0-29 12-29-1l35-128 6-17c3-2 10-2 10 3l1 103Zm-6-98-40 136c0 3 27-7 29-5l2 106 38-136-1-2c-4 0-26 8-27 7l-1-106ZM369 423h-5l1 5v106c-1 1-23-6-27-6l-1 1 43 136v4l5-2c-1 7-9 7-12 1l-42-139c-3-14 28 0 29-2-2-25-1-51-1-77l-1-6v-21c1-6 11-6 11 0Z"/><path class="cls-3" d="m369 423 43 138c2 18-19 3-28 5v90c0 2 2 7 1 11l-5 2v-4c-4-25 0-61-1-88 0-6-2-13-1-19 2 0 29 8 29 5l-42-135-1-5h5Z"/><path class="cls-7" d="M952 305c2 0 2-2 2-3 2-5 5-25 9-26 11 1 28-2 38 0 5 1 4 5 4 8l-31 91c-1 21 2 44 0 66 0 4 0 11-5 12-12 2-27-1-38 0-3-1-4-2-4-4-3-23 2-52 0-75-8-28-20-56-27-84-1-5-4-13 3-14h41c4 2 7 24 8 29Zm-11-24h-37l29 92c1 25-1 50-1 75 12-1 24-2 36 0v-74l31-93h-32l-15 48-11-48Z"/><path class="cls-2" d="m1454 364-16 66v2c1 1 22 6 23 5l16-66h3l30 8 2 1-45 168-34-10 21-79c-6 0-15-5-21-5l-2 1-20 77-35-9 44-167 34 8ZM1202 302l-18 143c-2 12 16 17 20 5l17-127 2-15 5-1c10 1 21 4 31 4l-19 142c-2 13-17 27-29 27l-39-6c-13-4-24-18-24-32 7-47 13-96 18-144l36 4Z"/><path class="cls-12" d="M1340 388c1-8 9-29 2-34-7-4-14-2-17 5l-5 27c1 12 21 22 30 30 7 7 14 15 15 26 1 9-6 44-12 52s-15 13-25 14l-42-10c-6-3-15-12-17-18-5-15 3-30 4-46l3-1c9 0 21 6 31 6 2 2-6 29-6 34 1 11 17 15 21 6 2-4 8-30 8-34 0-13-25-26-34-35s-12-19-11-31c3-38 18-57 58-48 21 4 38 17 36 40l-4 22-4 1c-10-1-21-6-31-6Z"/><path class="cls-16" d="M1105 368c-1 2 5 5 6 6 6 5 9 10 10 17 0 24-4 48-5 72l-36-3 6-69c-1-9-8-12-16-12-2 0-6-1-6 2l-6 77-35-4 13-172c23 4 67-1 83 17 10 11 9 30 7 43-2 12-8 24-21 26Zm-37-11h16c2 0 5-8 6-11l2-28c-1-11-14-11-22-11l-4 48 2 2Z"/><path class="cls-2" d="m771 473-36 6c-4-20-5-41-9-61-4-16-8-16-24-14l12 78-2 1-34 5-25-173c24-1 74-18 91 6 7 9 11 39 8 50-3 6-9 11-14 15 10 3 18 7 21 18l12 69Zm-59-140c-4-4-15-1-21-1l7 50c9-1 21-1 21-13l-4-28-3-8Z"/><path class="cls-12" d="m596 331 59 164c-6 0-32 9-35 7-2-2-9-29-11-33-3-3-22 3-22 4l4 36-34 8-10-177 49-9Zm5 115-26-85 9 87c1 3 14-2 17-2Z"/><path class="cls-16" d="M508 450c-10 10-24 13-37 17l21 73c-1 2-30 11-34 11l-48-167c25-4 75-31 94-4 6 7 15 40 15 48s-4 17-11 22Zm-44-4c7-2 19-3 20-13 0-4-9-36-12-38-5-5-17-1-22 2l14 49Z"/><path class="cls-12" d="m854 459-35 4-13-150-2-2c-4 0-25 3-26 2l-2-22h10c23-2 47-5 71-6 2 0 10-1 12 1-1 3 2 19 0 21-2 1-23 0-27 2v2l12 148Z"/><path class="cls-4" d="m1556 422 1 106c1 1 23-7 27-7l1 1-38 137-2-106c-2-2-29 8-29 5l40-136ZM365 428l42 135c0 3-27-5-29-5-1 6 1 13 1 19 1 27-3 63 1 88l-43-136 1-1c4 1 26 7 27 6V428Z"/><path class="cls-12" d="m941 281 11 48 14-48h33l-31 93v74c-12-2-24-1-36 0 0-25 2-50 1-75l-29-92h37Z"/><path class="cls-5" d="M1132 970c6-1 6 11 6 14-2 31-34 46-60 30-7-4-13-6-4-14 6 5 10 10 19 12 27 6 41-14 36-39l3-3Z"/><path class="cls-5" d="M1117 980c4-1 6 3 6 7-2 14-15 22-28 19-4-1-16-7-12-12s15 4 24-1c5-3 7-12 10-13ZM795 970c-9 29 16 53 44 39 5-3 11-12 15-4 2 6-15 14-20 15-25 6-51-14-48-40 1-6 3-11 9-10Z"/><path class="cls-5" d="M807 981c1 1 4 10 9 12 10 5 20-6 26 4-9 11-27 13-36 1-3-3-7-13-5-16l6-1Z"/><path class="cls-7" d="m1068 357-2-2 4-48c9 0 21 0 22 11l-2 28c-1 3-4 11-7 11h-16Zm5-5c10 1 11-5 12-14-1-10 7-26-10-25l-2 39ZM712 333l3 8 4 28c0 12-12 12-21 13l-7-50c6 0 17-3 21 1Zm-9 42c2 1 9-2 10-5s-2-20-3-24c-2-8-3-10-12-9l5 38ZM601 446c-3 0-16 5-17 2l-9-87 26 85Zm-7-4-8-25 2 26 6-1ZM464 446l-14-49c5-3 17-7 22-2 3 2 12 34 12 38-1 10-13 11-20 13Zm4-47c-2-2-7 1-10 1l10 37c0 1-1 1 1 1 4 0 9-3 9-6 0-4-8-31-10-33Z"/><path class="cls-8" d="m1073 352 2-39c17-1 9 15 10 25-1 9-2 15-12 14Zm6-8 2-24c-2 0-2 2-2 3l-1 15c0 2-1 6 1 6ZM703 375l-5-38c9-1 10 1 12 9l3 24c0 3-8 6-10 5Zm2-24v-6h-1v6h1Zm1 7v-6h-1v6h1Zm1 7v-6h-1v6h1Zm1 4c0-4-1-4-1 0h1Z"/><path class="cls-11" d="m594 442-6 1-2-26 8 25z"/><path class="cls-8" d="M468 399c2 2 10 29 10 33 0 3-5 6-9 6-2 0-1 0-1-1l-10-37c3 0 7-3 10-1Z"/><path class="cls-7" d="M1079 344c-2 0-1-4-1-6l1-15c0-1 0-3 2-3l-2 24Z"/><path class="cls-4" d="M705 352h1v6h-1zM704 345h1v6h-1zM706 359h1v6h-1zM708 369h-1c0-4 1-4 1 0Z"/></svg>