<?xml version="1.0" encoding="UTF-8"?>
<svg id="Laag_1" data-name="Laag 1" xmlns="http://www.w3.org/2000/svg" viewBox="0 0 1920 1920">
  <defs>
    <style>
      .cls-1 {
        fill: #1c190b;
      }

      .cls-2 {
        fill: #e8ce00;
      }

      .cls-3 {
        fill: #151100;
      }

      .cls-4 {
        fill: #12110d;
      }

      .cls-5 {
        fill: #f1d201;
      }

      .cls-6 {
        fill: #080701;
      }

      .cls-7 {
        fill: #fede01;
      }

      .cls-8 {
        fill: #fea301;
      }

      .cls-9 {
        fill: #fba000;
      }

      .cls-10 {
        fill: #fe1203;
      }

      .cls-11 {
        fill: #f8d800;
      }

      .cls-12 {
        fill: #16140b;
      }

      .cls-13 {
        fill: #f3ac07;
      }

      .cls-14 {
        fill: #fda100;
      }

      .cls-15 {
        fill: #fca000;
      }

      .cls-16 {
        fill: #fefb00;
      }
    </style>
  </defs>
  <path class="cls-7" d="M661.41,1487.55c-89.49-88.95-154.49-198.96-187.13-321.34-31.68-118.78-53.98-258.79-57.33-381.67-1.53-56.1.81-112.55,11.49-167.6,175.85-50.68,353.27-96.71,532.21-135.58,179.09,38.24,356.36,84.92,532.32,135.16,1.21.99,1.38,2.83,1.74,4.26,13.53,54.26,11.81,126.03,9.3,181.73-5.4,119.54-24.6,245.28-55.09,360.91-63.29,240.06-252.73,431.93-487.42,508.6-113.04-35.67-216.33-101.22-300.08-184.47ZM956.75,517.26c-31.86,3.68-74.51,16.59-106.76,24.23-130.51,30.92-260.14,65.87-389.33,101.67-2.64,1.52-3.96,13.82-4.52,17.48-7.06,46.47-5.4,98.11-3.15,144.87,5.66,117.89,25.46,248.12,57.29,361.71,61.37,218.98,237.16,395.54,451.06,468.5,204.18-69.77,377.19-236.74,443.36-443.51,22.67-70.85,38.06-154.1,49.13-227.87,13.7-91.3,24.01-199.04,14.16-290.83-.4-3.69-3.75-29.12-4.97-30.03-113.46-31.64-227.36-62.18-341.82-90.18-43.37-10.61-87.51-21.74-131.2-30.8-9.75-2.02-23.76-6.33-33.26-5.23Z"/>
  <path class="cls-4" d="M1137,397l1.88-8.62,12.19-98.81c3.45-9.96,16.69-8.09,25.42-7.56,7.04.43,25.6,2.36,31.76,4.24,3.42,1.04,5.81,5.15,7.2,5.35,4.19.61,13.54-.94,19.04-.58s31.55,3.75,35.02,5.98c8.26,5.31,4.95,13.05,5.48,21.49l-13.98,101.51c4.5-4.99,10.95-2.44,16.99-3l-6.86-11.63c-5.1-26.81-3.24-73.68,24.83-87.91,17.29-8.76,58.58-5.41,75.36,4.72,7.04,4.25,23.68,19.85,23.68,28.32v31c0,.67-2.78,5.06-.01,5.49l10.55-40.96c4.69-7.77,14.84-6.83,22.95-6.03,5.02.49,28.43,6.29,32.75,8.25,2.89,1.31,5.14,5.85,7.46,6.54,4.16,1.24,12.61-.25,17.69.31,4.46.5,29.13,6.68,32.53,8.47,1.1.58,7.57,7.12,7.87,8.13.9,3.04.41,15.82-.05,19.54l-43.01,163.99c-4.23,10.13-12.39,9.68-22.27,8.8-6.35-.56-31.16-7.33-37.03-9.97-3.09-1.39-5.09-5.26-7.14-5.86-3.74-1.1-10.86.13-15.54-.46-5.02-.63-31.11-7.96-34.71-10.29-.82-.53-6.05-5.53-6.05-5.95v-18.5c-7.96,6.32-16.13,10.29-26.46,11.04s-48.98-6.66-59.1-10.98c-11.35-4.84-27.09-25.72-24.45-39.06l-15.05,15.43c-2.92,2.08-12.07,6.01-15.5,6.5-10.23,1.48-50.61-4.42-61.12-7.76-9.23-2.92-24.91-19.93-25.33-30.18-1.47-.09-1.76,3.58-1.87,4.61-.32,2.97.52,6.83-.64,9.36-.19.42-5.45,5.8-5.93,6.07-2.84,1.63-14.04,1.17-18.05.94-8.83-.52-27.83-2.06-35.75-4.25-1.4-.39-2.17-2.18-3.2-2.34-4.69-.74-15.98.98-22.09.64-11.11-.63-22.3-2.97-33.44-3.56-1.73-2.05-5.48-4.29-5.99-7.01-.85-4.43-.25-15.88-.01-20.97,1.15-24.84,5-51.04,6.98-76.02,2.24-28.29,2.26-60.24,6.1-87.9.45-3.22,4.09-8.78,6.93-10.07s24.67-.71,29.47-.51c16.36.69,53.65,2.55,66.45,11.55,8.92,6.28,18.73,17.96,19.96,29.04,1.67,15.05.33,46.01-6.36,59.43-.72,1.44-3.22,3.98-3.26,4.45-.05.6,3.73,7.63,3.73,10.01v15.5ZM1069,452h1c-.22,5.33-1.57,15.84,4.72,17.78,13.96.5,31.1,5.1,44.84,3.27,2.96-.39,4.09-1.87,5.93-4.07,2.96-26.72,5.79-53.6,6.5-80.47,1.32-4.63-6.24-15.66-6.04-17.96.1-1.14,5.84-7.48,7.23-10.88,4.33-10.63,5.75-46.83,2.01-57.36-6.86-19.34-29.48-25.33-47.7-27.3-14.14-1.54-40.72-4.39-54.05-3.07-7.8.77-7.76,6.94-8.43,13.57-3.35,33.13-4.38,66.76-7.02,99.98-1.61,20.28-5.15,41.92-5.98,62.02-.26,6.34-1.41,15.5,6.7,17.28,7.38,1.63,24.79,2.87,32.8,3.2,16.63.69,15.98-.7,17.49-15.99ZM1213,309h-1c.3-6.5,1.78-14.32-5.53-16.97-6.26-2.27-36.31-4.97-43.03-4.08-3.4.45-4.84,2.67-6.7,5.3-6.1,51.4-14.21,102.73-18.74,154.24-.67,12.82,12.83,31.47,24.56,35.44,8.69,2.95,43.91,7.87,52.81,6.95,21.54-2.24,31.91-17.82,35.46-37.54,7.95-44.17,10.7-89.51,18.21-133.79-.25-11.45,2.7-15.69-9.84-18.24-7.47-1.52-36.47-5.35-41.75-2.35-4.21,2.39-3.92,7.1-4.45,11.05ZM1350.01,401.01c9.45,1.15,29.61,9.8,34.73-1.77,3.56-8.04,6.09-32.76,5.13-41.61-4.39-40.71-82.19-54.4-105.31-21.56-6.85,9.73-11.56,42.45-10.55,54.42,1.41,16.69,10.39,23.22,20.98,34.51-9.64-.43-27.26-8.91-31.98,3.53s-8.53,45.34-4.21,57.17c2.29,6.26,13.39,18.73,19.28,21.72,4.86,2.47,35.3,9.54,41.66,10.34,41.79,5.25,50-24.72,54.93-58.56,3.22-22.12,1.14-34.65-15.16-50.21l-9.52-7.97ZM1465.01,371.99c-.04-7.01,1.57-13.85-5.75-17.76-4.11-2.2-26.66-7.72-31.77-8.23-5.56-.55-13.95-1.36-16.91,4.07l-43.13,162.87c-.31,8.21-3.33,16.41,5.54,20.57,4.6,2.16,24.52,7.77,29.62,8.38,6.14.73,14.13,1.55,17.85-3.93,1.24-1.83.86-4.5,2.53-4.96.33,6.21-2.03,12.45,4.73,15.77,7.77,3.81,35.54,10.38,43.83,9.28,5.76-.76,6.61-6.23,8.16-10.84,17.13-50.98,25.95-107.53,41.84-159.16.74-7.55,2.46-14.72-5.28-18.82-4.19-2.22-26.61-7.71-31.78-8.22-5.55-.55-13.97-1.36-16.91,4.08l-2.57,6.91ZM1383.5,410c-3.38.96-10.58-.7-14.5,0,7.12,7.34,11.94,16.67,12.5,27.01,1.78-9.95,7.13-21.83,8.5-31.52.09-.6.28-1.64-.5-1.49-1.48.92-4.95,5.7-6,6Z"/>
  <path class="cls-4" d="M770.5,329c-.36-.09-4.06-3.57-4.49-3,2.12,15.39,4.07,30.86,2.98,46.49-.2,2.89-2.24,6.71-2,9,.21,2,5.45,6.59,6.76,9.26,4.43,9.01,12.04,61.4,13.12,73.88.7,8.01,2.01,17.67-5.37,22.39-3.72,2.38-28.46,6.39-34.14,6.86s-13.8-.82-18.85.15c-2.69.52-3.13,3.01-5.25,3.75-5.65,1.96-27.3,5.48-33.89,6.11-5.53.53-12.95-.79-17.86.14-2.93.56-4.63,4.55-7.96,6.04-4.98,2.23-28.24,7.22-34.18,7.82-7.15.72-18.56,1.82-23.37-3.88,1.3,3.76-3.58,9.48-6.77,10.74-4.71,1.87-28.55,7.53-33.85,8.15-3.42.4-12.76.68-15.87.09-2.93-.56-7.91-6.58-8.47-9.53-1.97-10.54-2.27-26.71-3.05-37.95-1-14.58-1.45-29.39-2.01-44-.05-1.21.75-3.72-.99-3.48-2.14,22.04-23.35,34.66-42.09,41.62l14.82,51.13c.11,10.35,3.29,20.25-7.47,26.01s-36.21,11.44-47.83,10.29c-4.94-.49-8.06-4.46-10.22-8.78l-47.56-162.44c-.52-9.45-3.85-20.56,5.38-26.3,5.24-3.26,47.76-14.83,55.74-16.26,27.4-4.93,56.33-2.69,68.7,25.75l9.51,30.97-2.03-29.45c.99-6.7-.81-13.68-1-20-.15-4.78-.73-25.69.56-28.52.3-.66,5.69-5.98,6.52-6.48,3.63-2.2,42.3-9.81,48.58-10.42,3.41-.33,13.9-.74,16.67.08,1.84.55,8.17,7.7,9.21,9.79l29.03,81.97,11.45,29.04-15.98-110.51c.54-11.89-3.97-22.86,10.77-26.21,21.38-4.85,65.5-10.17,86.28-5.84,5.53,1.15,10.66,3.35,14.96,7.04l11.98,12.51c-.02-6.96-3.08-26.26-.04-31.55,2.6-4.53,7.79-5.87,12.57-6.43,24.73-2.91,55.04-4.96,79.99-6.01,5.51-.23,19.42-.99,23.44,1.53,2.44,1.53,6.94,6.55,7.61,9.39.83,3.46,1.33,13.4,1.47,17.53.31,8.82,2.29,21.61-8.2,24.88-2.66.83-18.6.71-18.86,2.2,2.58,25.94,3.91,51.98,6.03,77.96,1.23,15.08,4.15,31.11,4.98,46.02.22,3.89.7,15.77-.2,18.79-.54,1.81-5.41,5.98-7.32,6.68-5.27,1.93-29.25,4.57-35.99,5.01-9.8.65-17.83,1.7-23.25-7.72-5.71-47.25-8.34-94.84-12.24-142.26-5.64-.94-15.48,1.27-20.5,0ZM795.99,323.01c4.11,48.09,7,96.3,12.21,144.29,3.87,7.51,12.8,6.16,20.29,5.69,5.11-.32,28.05-2.92,31.45-4.55,5.69-2.72,4.4-14.32,4.1-19.99-.63-11.63-3.07-24.2-4.04-35.96-2.51-30.65-4.4-61.34-7.03-91.98.08-1.19.47-1.98,1.66-2.38,5.44-1.79,21.82,2.09,24.84-5.16,1.13-2.72.8-16.7.56-20.52-.92-15.06-2.72-18.97-18.58-18.5l-91.44,7.56c-.59.24-3.25,2.91-3.49,3.51-1.12,2.69-.82,17.6-.56,21.52.37,5.71,1.47,16.08,8.56,17.44s14.67-1.45,21.46-.96ZM724.99,478c-.71,10.65,6.76,11.57,15.55,11.03,7.09-.43,27.92-3.58,34.3-5.7,7.81-2.59,6.55-9.87,6.03-16.71-1.27-16.85-6.08-48.55-10.15-64.85-.78-3.12-2.18-7.43-3.88-10.12-1.61-2.53-7.77-6.92-7.82-9.13-.04-1.9,3.43-6.69,3.89-10.11,3.69-26.99-2.02-70.39-35.52-74.3-26.11-3.05-54.51,4.31-80.36,7.42-5.68,2.5-4.39,15.44-4.02,20.96,2.03,30.25,9.46,67.24,14.15,97.85,3.56,23.23,7.11,46.5,11.39,69.61,3.78,5.66,7.63,5.5,13.99,5.09,11.74-.76,24.72-5.59,36.72-6.27l4.53-4.47,1.2-10.29ZM599.01,481c5.66,5.77,7.91,29.48,15.69,31.8,2.33.69,8.01.35,10.67.08,6.71-.67,27.33-5.19,33.43-7.57,7.99-3.13,7.28-11.91,5.71-19.32-3.51-16.6-16.69-43.69-22.97-61.03-11.82-32.61-23.36-65.31-35.03-97.97-2.94-7.52-11.14-6.55-18.05-6.02s-41.01,6.77-46.71,9.3c-6.71,2.97-6.03,9.07-5.8,15.28,2.19,58.93,6.89,117.94,11.28,176.72,2.18,6.07,11.86,5.28,17.25,4.73,3.6-.37,29.8-6.67,32.06-7.95,1.97-1.12,4.2-4.21,4.51-6.49,1.37-10.24-2.27-21.28-2.04-31.55ZM485.04,475.06c17.61-4.09,41.98-17.67,43.95-37.57,1.64-16.57-3.65-40.39-10.23-55.75-5.04-11.77-17.22-22.43-30.27-23.73-29.73-2.96-57.19,8.62-85,16.98-5.77,3.89-3.24,12.95-3.04,19.06,16.04,54.85,30.62,110.19,48.54,164.46,2.97,4.82,11.24,4.05,16.27,3.25s26.05-7.38,30.46-9.54c8.63-4.23,6.27-12.42,6.04-20.48l-16.72-56.68Z"/>
  <path class="cls-6" d="M1532,671c-.28-.57-1.38-1.22-1.06-2.39l-1.95-94.6c-5.16.89-19.46,2.4-23.55.05-8.45-4.86-4.7-15.45-5.45-23.56l38.53-138.47c.84-2.43,4.28-7.51,6.51-8.49,2.96-1.32,15.26-2.23,18.27-1.33.41.12,6.52,4.88,6.77,5.23,1.87,2.56.7,10.32.94,14.06,1.34,20.73.28,41.28.95,62.05.23,7.16,1.95,14.96,1.05,22.45,6.31-1.36,25.45-3.15,27.81,4.69.37,1.23,1.2,10.8,1.24,12.79.16,7.65-4.23,20.78-6.34,28.74-9.23,34.91-18.94,71.21-29.22,105.78-1.11,3.73-2.3,8.93-4.5,12-1.11.32-1.43,1.15-2,2-.26.39-.74.65-1,1-4.61.91-17.17,2.21-20.98.48-1.09-.49-6.08-7.86-6.02-2.48ZM1567,513l-1.06-98.45c-.45-7.38-11.83-8.15-16.92-6.03-3.6,1.5-5.12,8.25-6.29,11.71-14.65,43.13-23.58,89.87-37.62,133.37-2.34,22.57,13.9,16.75,28.88,13.4,1.51,16.15.58,32.33.96,48.54.06,2.37,1.02,4.55,1.08,6.92.25,9.79-1.85,38.49,1.52,45.48,2.75,5.72,18.79,4.23,20.51-3.38l37.85-136.15c-.37-6.09,2.65-15.48-4.99-17.93-.96-.31-12.47.37-14.35.59-3.08.37-6.06,2.69-9.58,1.92Z"/>
  <path class="cls-6" d="M368,680c-2.22-1.93-4.39-3.08-5.05-6.45l-41.94-138.06c-2.44-24.45,5.33-25.91,27.98-22.49.81-32.71-2.44-65.25-.48-97.98,3.25-7.15,15.26-6.97,22.03-6.07,3.78.5,6.41,4.44,8.67,7.33l43.54,139.46c.5,3.19.83,14.88.03,17.56-.25.83-5.84,6.7-6.3,6.7h-21c-.23,0-1.33-1.9-1.5-.5l1,94.5c-3.15.43-5.47,5.14-7.7,5.8-5.01,1.48-13.9-.79-19.3.2ZM389.01,572c17.53,3.78,31.32,9.33,27.75-15.26l-42.25-135.75c-2.79-8.64-20.34-8.79-21.57.46-1.09,8.25.97,18.02,1.09,26.01.37,24.14-1.16,48.58.95,72.54-15.51-1.94-32.4-8.76-28.76,14.27,14.74,42.33,25.08,87.03,39.74,129.26,1.29,3.72,3.13,11.32,7.04,12.96,2.06.87,10.12.94,12.27.32,8.1-2.36,3.79-18.19,3.67-24.25-.57-26.82.51-53.73.05-80.54Z"/>
  <path class="cls-4" d="M894.7,266.2l52.85-.26c2.46-.66,4.23,3.37,5.82,3,.95-.22,1.71-2.03,2.65-2.43,2.33-.99,45.75-1.21,50.53-.57,2.44.33,7.58,4.52,8.24,6.76.92,3.1.42,16.68-.25,20.34-4.97,27.51-24.3,60.4-30.31,88.69l-.26,72.74c-.51,2.68-5.47,6.43-7.68,8.32l-52.77.18c-2.55-.49-5.65-4.57-7.32-6.68l.69-74.69-28.81-92.19c.24-9.24-2.9-17.94,6.62-23.21ZM952.01,282c.21-4.54-1.94-9.42-6.53-10.98h-45.96c-7.17,1.36-6.03,12.55-5.07,18.03,4.93,28.19,21.74,61.2,28.37,89.72-1.85,24.12-.28,48.54-.87,72.78-.04,2.58,3.1,5.95,5.57,6.43,5.86,1.12,37.58.93,44.03.07,2.96-.39,4.09-1.87,5.92-4.08l1.76-76.24,30.68-91.32c.38-6.06,1.44-14.43-6.36-15.47-12.93-1.72-29.66,1.36-43.03.08-5.01,1.6-5.3,5.4-6.5,9.51-.43,1.46.59,1.75-2.02,1.47Z"/>
  <path class="cls-1" d="M1559,673c-.69.92-.11,3.04-2.69,3.81-1.3.39-14.99.9-16.85.74-2.16-.19-6.5-4.58-7.45-6.55-.06-5.38,4.93,1.99,6.02,2.48,3.81,1.73,16.37.43,20.98-.48Z"/>
  <path class="cls-1" d="M368,680c5.39-.99,14.28,1.28,19.3-.2,2.23-.66,4.55-5.37,7.7-5.8-1.11,10.25-15.54,10.43-23.48,8.98-2.72-.5-2.39-2-3.52-2.98Z"/>
  <path class="cls-1" d="M1560,672c.57-.85.89-1.68,2-2-.58.81-.96,1.63-2,2Z"/>
  <path class="cls-11" d="M1465.01,371.99l2.57-6.91c2.93-5.44,11.35-4.63,16.91-4.08,5.17.51,27.59,6.01,31.78,8.22,7.75,4.1,6.02,11.27,5.28,18.82-15.89,51.64-24.71,108.18-41.84,159.16-1.55,4.61-2.4,10.08-8.16,10.84-8.29,1.1-36.06-5.46-43.83-9.28-6.76-3.32-4.41-9.56-4.73-15.77-1.67.45-1.29,3.12-2.53,4.96-3.72,5.48-11.72,4.66-17.85,3.93-5.1-.61-25.02-6.22-29.62-8.38-8.87-4.16-5.85-12.36-5.54-20.57l43.13-162.87c2.96-5.43,11.35-4.62,16.91-4.07,5.12.51,27.66,6.03,31.77,8.23,7.32,3.91,5.71,10.74,5.75,17.76ZM1456,430.01c-.68.68-10.44-1.89-10.73-3.45l14.49-57.3c.86-4.48.21-8.31-4.2-10.32s-24.02-6.99-29.32-7.68c-2.63-.34-9.07-1.03-10.78.71l-44.02,165.98c-.49,3.01-1.46,6.72.99,9.12,1.43,1.4,30.72,10.2,34.3,10.7,2.93.42,5.77.64,8.25-1.27l21.09-75.41,10.91,1.93-19.76,71.73c-.57,4.57-1.34,7.17,3.21,9.31,5.03,2.37,27.57,8.81,33.29,9.71,2.93.46,5.79.89,7.83-1.69l45.42-173.53c-.93-5.16-12.93-6.93-17.78-8.26-5.6-1.54-22.52-6.64-26.81-3.38l-16.41,63.1ZM1460.99,391c.5-4.16-1.48-4.16-.98,0h.98ZM1459.99,395c.5-4.16-1.48-4.16-.98,0h.98ZM1458.99,399c.5-4.16-1.48-4.16-.98,0h.98ZM1457.99,403c.5-4.16-1.48-4.16-.98,0h.98ZM1455.99,410.99l1-6.99c-1.52.06-3.05,6.93-1,6.99ZM1454.99,415c.5-4.16-1.48-4.16-.98,0h.98Z"/>
  <path class="cls-11" d="M1212,309c-.11,2.44-4.24,28.02-2.5,28.01,2.11-9.17,2.26-18.72,3.5-28.01.53-3.95.24-8.67,4.45-11.05,5.28-2.99,34.28.83,41.75,2.35,12.54,2.55,9.59,6.79,9.84,18.24-7.51,44.28-10.25,89.62-18.21,133.79-3.55,19.73-13.92,35.3-35.46,37.54-8.9.93-44.12-4-52.81-6.95-11.72-3.97-25.22-22.63-24.56-35.44,4.53-51.5,12.64-102.83,18.74-154.24,1.86-2.63,3.3-4.85,6.7-5.3,6.72-.89,36.77,1.81,43.03,4.08,7.31,2.65,5.83,10.47,5.53,16.97ZM1190.27,449.74c-.76-.83-1.08-2.06-1.09-3.18,6.28-48.6,13.79-97.24,17.8-146.03-.1-1.09-.56-1.91-1.4-2.6-1.72-1.42-27.02-4.7-31.09-4.91-14.28-.73-13.76.76-15.4,13.67-3.43,26.98-6.37,55.64-9.64,83.46-3.57,30.33-18.48,68.89,14.28,87.64,14.66,1.11,33.7,8.01,47.84,8.26,9.13.16,23.6-9.96,28.26-17.72,6.59-10.98,8.08-34.61,10.04-47.96,4.66-31.88,12.49-72.57,14.12-103.87.15-2.93.91-8.45-2.01-9.97-2.49-1.3-27.19-4.39-31.43-4.57-3.79-.15-10.23-.94-12.01,3.07l-19.81,141.2c-.5,4.79-4.97,7.31-8.46,3.51ZM1208.99,344.99v-6.99h-.98v6.99h.98ZM1207.99,352.99v-6.99h-.98v6.99h.98Z"/>
  <path class="cls-5" d="M1350.01,401.01l9.52,7.97c16.3,15.56,18.38,28.09,15.16,50.21-4.93,33.84-13.14,63.81-54.93,58.56-6.36-.8-36.79-7.87-41.66-10.34-5.89-2.99-16.99-15.46-19.28-21.72-4.33-11.83-.4-45.03,4.21-57.17s22.34-3.96,31.98-3.53c-10.59-11.28-19.58-17.82-20.98-34.51-1.01-11.97,3.7-44.69,10.55-54.42,23.12-32.83,100.92-19.15,105.31,21.56.95,8.85-1.58,33.57-5.13,41.61-5.12,11.56-25.28,2.92-34.73,1.77ZM1315.85,477.84c-2.61,1.62-8.09-1.15-8.69-4.58-1.06-6.04,5.84-24.69,5.91-32.76.03-3.77-.24-5.6-4.06-7.01-5.43-2-25.56-5.84-31.63-6.37-5.28-.46-7.72-.34-9.7,5.06-3.37,9.2-6.63,33.64-5.67,43.31.86,8.72,10.94,23.7,18.75,27.25,5.48,2.49,35.18,9.13,42,10,22.48,2.86,36.49-10.1,41.75-30.73,7.44-29.15,13.33-48.87-11.04-70.98-5.91-5.36-25.38-17.56-27.03-24.01-.85-3.34,3.58-26.17,5.98-28.11,2.77-2.23,6.35.13,6.67,3.58.77,8.4-10.19,27.73.67,31.25,6.55,2.12,22.99,5.24,30,5.99,3.56.38,8.36,1.55,9.97-2.47,1.49-3.72,4.5-20.45,4.98-25.02,3.13-29.71-18.64-44.35-45.35-48.1-18.68-2.63-37.9-1.46-49.79,14.96-7.41,10.23-12.46,44.79-9.1,56.93,5.89,21.29,40.4,35.67,43.09,46.98.76,3.21-5.88,33.69-7.72,34.84Z"/>
  <path class="cls-5" d="M1070,452c.69-16.74,4.11-33.73,4.99-50.51.07-1.36.37-9.5-.49-9.5-2.71,19.82-3.54,40.05-5.5,60.01-1.51,15.29-.85,16.68-17.49,15.99-8.01-.33-25.42-1.57-32.8-3.2-8.1-1.79-6.96-10.95-6.7-17.28.83-20.1,4.37-41.74,5.98-62.02,2.64-33.22,3.67-66.85,7.02-99.98.67-6.63.62-12.8,8.43-13.57,13.33-1.32,39.91,1.53,54.05,3.07,18.21,1.98,40.84,7.96,47.7,27.3,3.74,10.54,2.32,46.73-2.01,57.36-1.39,3.4-7.13,9.74-7.23,10.88-.2,2.31,7.36,13.33,6.04,17.96-.71,26.87-3.55,53.75-6.5,80.47-1.84,2.2-2.97,3.68-5.93,4.07-13.74,1.83-30.88-2.77-44.84-3.27-6.28-1.94-4.93-12.46-4.72-17.78ZM1070.05,385.04c5.16-.05,9.31,1.84,9.97,7.44.67,5.66-.59,14.92-1.02,21.01-.9,12.58-3.47,25.44-3.98,38.02-.18,4.46-1.61,12.27,3.55,13.43,6.72,1.51,20.8,2.72,27.95,3.05,3.1.14,11.91.81,13.59-1.39,1.35-1.76,2.53-15.67,2.89-19.11,1.64-15.28,6.33-52.9,1.78-65.77-1.1-3.12-6.82-10.56-6.82-11.22,0-1.78,7.73-8.27,9.44-11.6,4.66-9.12,6.58-40.84,3.9-50.69-6.88-25.22-36.34-27.23-57.81-29.19-8.7-.8-19.35-1.75-27.95-2.05-12.29-.43-14.1-2.14-15.53,10.55-3.18,28.3-3.78,58.4-6.02,86.98-1.93,24.55-5.96,50.66-6.98,75.01-.19,4.62-.77,8.93,4.51,10.47,10.87-.14,22.22,2.67,32.94,3.06,2.44.09,5.97.52,7.62-1.47l7.97-76.53Z"/>
  <path class="cls-1" d="M1070,452h-1c1.96-19.96,2.79-40.19,5.5-60.01.86,0,.56,8.14.49,9.5-.88,16.78-4.3,33.77-4.99,50.51Z"/>
  <path class="cls-13" d="M1213,309c-1.24,9.29-1.39,18.84-3.5,28.01-1.74,0,2.39-25.57,2.5-28.01h1Z"/>
  <path class="cls-11" d="M724.99,478l-1.2,10.29-4.53,4.47c-12,.69-24.98,5.51-36.72,6.27-6.36.41-10.21.58-13.99-5.09-4.28-23.11-7.82-46.38-11.39-69.61-4.69-30.61-12.12-67.6-14.15-97.85-.37-5.52-1.66-18.46,4.02-20.96,25.85-3.11,54.25-10.47,80.36-7.42,33.5,3.91,39.21,47.31,35.52,74.3-.47,3.42-3.94,8.21-3.89,10.11.05,2.22,6.21,6.6,7.82,9.13,1.71,2.69,3.11,7,3.88,10.12,4.07,16.3,8.88,48,10.15,64.85.51,6.84,1.78,14.12-6.03,16.71-6.37,2.12-27.21,5.27-34.3,5.7-8.79.53-16.25-.39-15.55-11.03ZM708,409c6.99-.4,9.07-.67,11.3,6.2,5.73,17.6,5.35,43.17,10,62,.75,3.04.56,6.05,4.22,6.77,4.23.84,32.52-3.8,37.5-5.44s5.19-2.62,4.97-7.99c-5.33-21.14-5.23-45.75-10.47-66.56-2.29-9.12-8.06-15.09-15.51-20.47,6.1-5.32,9.14-14.99,9.06-23.02-.1-9.84-4.1-33.74-9.26-41.81-6.06-9.49-17.25-14.68-28.34-15.66-23.7-2.11-48.93,5.04-72.46,7.51-.91.46-1.53,1.19-1.82,2.17-1.1,3.69,1.29,17.77,1.93,22.67,5.54,42.88,12.06,86.2,19.14,128.86.8,4.8,3.58,25.26,5.28,27.72,2,2.9,5.61,2.27,8.85,1.94,5.8-.6,27.33-4.2,32.07-5.92,1.97-.72,3.48-1.67,4.32-3.69l-10.8-75.29Z"/>
  <path class="cls-5" d="M599.01,481c-.23,10.27,3.41,21.31,2.04,31.55-.31,2.29-2.54,5.38-4.51,6.49-2.26,1.28-28.45,7.58-32.06,7.95-5.39.55-15.07,1.35-17.25-4.73-4.39-58.78-9.09-117.79-11.28-176.72-.23-6.21-.91-12.31,5.8-15.28,5.7-2.52,39.47-8.75,46.71-9.3s15.1-1.5,18.05,6.02c11.67,32.66,23.22,65.36,35.03,97.97,6.28,17.34,19.46,44.43,22.97,61.03,1.57,7.41,2.28,16.19-5.71,19.32-6.09,2.39-26.72,6.9-33.43,7.57-2.66.27-8.34.61-10.67-.08-7.79-2.31-10.03-26.03-15.69-31.8ZM603.99,473.99c3.52,8.96,5.79,22.05,10.25,30.27,2.39,4.42,4.55,3.92,8.99,3.46,5.89-.61,28.37-5.46,33.34-7.66s3.7-7.1,2.76-11.88c-10.92-28.83-21.77-57.7-32.33-86.67-7.89-21.64-15.3-50.11-24.79-70.21-3.11-6.58-5.64-5.85-12.67-5.29-7.39.58-37.86,6.35-44.08,8.91-7.55,3.1-3.54,9.77-3.39,15.53,1.28,49.35,3.54,101.95,7.97,151.03.34,3.73,1.28,16.02,2.49,18.51,1.39,2.86,7.12,2.18,9.9,1.89,5.1-.53,24.3-5.11,29.08-6.91,5.85-2.2,4.79-7.1,4.56-12.52-.16-3.83-4-25.53-3.05-26.46l11-2Z"/>
  <path class="cls-5" d="M485.04,475.06l16.72,56.68c.23,8.06,2.59,16.25-6.04,20.48-4.41,2.16-25.58,8.77-30.46,9.54s-13.29,1.56-16.27-3.25c-17.92-54.27-32.5-109.6-48.54-164.46-.19-6.11-2.73-15.17,3.04-19.06,27.81-8.36,55.27-19.94,85-16.98,13.05,1.3,25.23,11.96,30.27,23.73,6.58,15.37,11.87,39.18,10.23,55.75-1.97,19.89-26.34,33.48-43.95,37.57ZM478,471.01c16.44-2.6,42.28-15.02,45.55-32.96,2.59-14.24-3.53-37.71-8.77-51.32-10.97-28.48-37.64-26.43-62.99-20.44-5.5,1.3-43.56,11.91-45.35,13.65-2.55,2.51-1.34,7.92-1.2,11.32,16.36,54.72,30.68,110.1,48.7,164.3,2.14,2.43,6.24,1.47,9.11.97,5.37-.94,25.77-7.19,30.5-9.49,5.13-2.5,5.01-4.85,4-10.1l-19.55-65.94Z"/>
  <path class="cls-5" d="M795.99,323.01c-6.79-.49-14.74,2.25-21.46.96-7.09-1.35-8.19-11.72-8.56-17.44-.26-3.92-.56-18.82.56-21.52.25-.59,2.91-3.27,3.49-3.51l91.44-7.56c15.87-.47,17.66,3.44,18.58,18.5.23,3.82.57,17.8-.56,20.52-3.02,7.26-19.4,3.37-24.84,5.16-1.19.39-1.58,1.19-1.66,2.38,2.63,30.63,4.52,61.33,7.03,91.98.96,11.77,3.41,24.34,4.04,35.96.31,5.66,1.59,17.26-4.1,19.99-3.4,1.63-26.34,4.22-31.45,4.55-7.49.47-16.42,1.82-20.29-5.69-5.21-47.98-8.11-96.2-12.21-144.29ZM848.01,314.01c4.71-1.35,24.66-.25,26.5-4,1.48-3.03.32-24.55-1.44-27.57s-6.33-3.6-9.59-3.49c-25.36.86-55.56,3.51-80.97,6.07-1.96.2-8.34.92-9.52,1.48-3.09,1.47-2.24,17.13-1.86,20.88.85,8.48,2.15,12,11.41,11.67,5.68-.2,12.72-1.33,18.45-2.04,3.55,49.12,6.86,98.34,12.23,147.28,1.46,4.78,8.22,3.9,12.27,3.71,4.52-.22,29.9-3.16,32.48-4.51,1.22-.64,1.84-1.68,2.02-3.02l-11.99-146.44Z"/>
  <path class="cls-2" d="M1567,513c3.52.77,6.5-1.55,9.58-1.92,1.88-.23,13.38-.9,14.35-.59,7.65,2.45,4.62,11.84,4.99,17.93l-37.85,136.15c-1.72,7.61-17.76,9.09-20.51,3.38-3.37-6.99-1.26-35.7-1.52-45.48-.06-2.37-1.03-4.55-1.08-6.92-.39-16.2.54-32.38-.96-48.54-14.98,3.35-31.22,9.17-28.88-13.4,14.04-43.51,22.97-90.24,37.62-133.37,1.17-3.46,2.69-10.21,6.29-11.71,5.09-2.12,16.47-1.34,16.92,6.03l1.06,98.45ZM1562,520l-1.03-103.48c-.46-4.21-6.98-4.6-9.57-2.62-1.58,1.21-5.01,14.07-5.9,17.09-12.57,42.28-23.47,85.13-35.55,127.56-.39,13.41,22.04,1.17,29.05,1.44,1.39,16.17.6,32.33.96,48.54.05,2.37,1.03,4.55,1.08,6.92.15,6.94-1.07,46.7.86,49.14,1.62,2.05,6.56,2,8.68.48,1.75-1.25,2.68-5.46,3.44-7.56,15.12-42.12,22.75-90.31,36.87-133.12.28-2.74.91-8.44-2.58-9.25l-26.3,4.85Z"/>
  <path class="cls-5" d="M389.01,572c.46,26.81-.62,53.72-.05,80.54.13,6.06,4.44,21.9-3.67,24.25-2.15.62-10.21.55-12.27-.32-3.91-1.64-5.75-9.24-7.04-12.96-14.66-42.23-25.01-86.93-39.74-129.26-3.65-23.02,13.25-16.21,28.76-14.27-2.12-23.95-.58-48.4-.95-72.54-.12-7.99-2.19-17.76-1.09-26.01,1.23-9.25,18.78-9.1,21.57-.46l42.25,135.75c3.56,24.59-10.22,19.04-27.75,15.26ZM369,423c-.37-5.52-9.98-5.76-10.97-.47-.89,4.73-.19,15.58-.07,21.01.05,2.37,1.04,4.55,1.08,6.92.45,25.5-1.12,51.15.95,76.54-1.43,1.53-31.69-11.73-29.04,2.48l42.54,138.53c2.39,5.86,10.65,6.28,11.5-1,.5-4.33-1-8.53-1-11.5v-89.5c8.99-1.62,30.24,12.51,28.01-4.51l-43.01-138.49Z"/>
  <path class="cls-5" d="M952.01,282c2.61.28,1.59-.01,2.02-1.47,1.2-4.12,1.49-7.91,6.5-9.51,13.37,1.29,30.1-1.8,43.03-.08,7.8,1.04,6.74,9.41,6.36,15.47l-30.68,91.32-1.76,76.24c-1.83,2.2-2.97,3.68-5.92,4.08-6.45.86-38.17,1.04-44.03-.07-2.47-.47-5.62-3.85-5.57-6.43.59-24.24-.98-48.67.87-72.78-6.63-28.52-23.44-61.53-28.37-89.72-.96-5.48-2.1-16.67,5.07-18.03h45.96c4.59,1.56,6.74,6.44,6.53,10.98ZM952.01,305c-1.05-4.94-4.23-26.7-8.01-28.5-1.83-.87-36.62-1.07-40.55-.54-7.27.96-4.16,8.96-2.95,14.04,6.61,27.72,18.95,55.92,26.41,83.59,2.45,23.29-2.96,52.38.04,74.96.34,2.53.83,3.91,3.57,4.43,11.86-1.1,26.53,1.56,38.02.07,5.44-.71,5.15-7.64,5.5-12.5,1.51-21.34-1.41-44.29.2-65.8l30.68-90.33c.38-3.41.8-7.59-3.44-8.39-10.68-2-27.42,1.27-38.78.16-3.77,1.14-6.99,20.83-8.56,25.44-.45,1.31-.29,3.05-2.12,3.37Z"/>
  <path class="cls-16" d="M1179.5,1242c-.59-.17-1.72-1.59-1.5-2.49.15-.62,8.58-6.66,10.01-8,14.79-13.76,27.72-31.13,37.99-48.5l-27.98,17.51c-4.29,2.27-33.96,16.3-36.03,15.05-1.96-1.18-3.66-15.12-4.48-18.58-7.73-32.48-24.97-69.16-51.01-90.99-1.12-.94-1.63-2.43-3.5-1.99,13.98,22.68,24.06,45.32,28.71,71.78,1.68,9.55,3.9,23.24,4.28,32.72.28,6.97-.34,7.59-6.31,10.67-20.34,10.5-40.3,10.92-62.16,10.78-7.34-.05,3.95,6.35,5.8,7.22,16.93,7.98,42.53,6.26,60.68,3.82,2.74,2.76-12.26,11.33-14.69,12.8-24.71,15.05-51.8,25.03-79.3,33.69,1.14,1.67,2.73,1.43,4.44,1.56,17.29,1.31,42.18-.78,58.98-5.13,12.74-3.29,24.45-9.64,36.57-13.92,2.83,2.87-12.99,12.77-15.32,14.17-26.35,15.74-57.74,21.48-88.05,23.95l-8.61,1.87c34.75,14.74,70.83,10.35,104.45-5.02,4.92-.26-6.64,14.44-7.48,15.51-30.9,38.88-75.04,42.68-117.64,19.7-32.88-17.73-45.97-32.99-30.19-70.53,3.91-9.31,18.34-34.19,27.62-37.39,6.39-2.2,14.5-2.79,21.23-4.76,38.38-11.25,48.81-42.51,22.5-73.49-.38,4.19,2.07,8.84,2.49,13.51.97,10.75-.57,25.13-14.45,24.49-9.55-.44-21.56-5.16-31.03-5.09-11.92.08-26.35,4.66-38.96,5.13-19.17.72-36.94-5.27-56.09-4.09-7.93.49-18.13,4.36-24.96,4.14-15.84-.51-13.82-26.6-8.48-36.58l-2-.51c-2.7,5.2-7.34,9.16-9.9,14.62-12.91,27.56,5.2,49.52,31.09,57.66,7.14,2.24,15.44,2.47,22.06,4.94,14.79,5.51,29.54,35.21,33.05,49.95,6.44,27.01-2.85,37.87-24.41,52.24-45.92,30.59-100.74,28.07-132.73-20.1-11.05-16.64,6.11-5.1,13.55-2.55,27.48,9.42,62.01,11.25,88.26-2.27-30.62-4.15-61.13-6.33-89.02-20.97-3.17-1.66-19.9-12.07-20.82-14.18-.52-1.19-.82-3.93,1.3-3.31,5.2,1.53,11.68,5.67,17.3,7.71,26.01,9.46,52.68,12.53,80.25,9.24-.31-1.89-2.1-1.63-3.38-2.11-28.53-10.56-50.76-15.85-77.53-32.47-2.3-1.43-16.95-9.53-14.08-12.41,18.39,1.85,40.19,4.59,57.67-2.83,2.88-1.22,15.76-8.56,6.95-8.1-13.04.68-19.33,1.15-32.44-1.76-5.61-1.25-32.59-9.46-33.99-14.01-.9-2.93,1.36-19.38,1.95-23.67,2.71-19.93,8.06-39.58,16-58l15.85-28.64c-25.61,19.94-44.96,52.5-53.71,83.78-1.1,3.93-5.24,26.33-6.41,27.09-2.22,1.42-16.95-5.54-20.23-7.01-13.31-5.98-25.61-13.15-37.61-21.39-1.35-.93-1.94-1.96-4.02-1.47,9.7,21.38,27.61,37.38,44.33,53.16,3.13,2.96.35,4.26-2.89,4.77-4.43.7-24.86-.5-28.67-2.21-2.07-.93-15.53-17.21-17.75-20.25-.77-1.06-4.93-6.64-4.02-7.47l4.99-1.49c-7.52-3.03-10.11-4.74-14.8-11.2-39.19-53.97-45.93-147.68-29.91-210.53,4.27-16.73,20-53.19,17.48-68.05-1.87-11.02-19.08-22.83-26.79-31.21-8.89-9.66-16.81-20.38-20.99-33.01,0-1.04,3.41-.54,4.27-.27,3.96,1.24,13.91,9.01,19.39,11.61,10.53,5,31.5,12.03,42.91,12.17,9.77.12,25.08-13.98,32.47-20.51,27.46-24.29,50.45-54.82,66.99-87.5-.73-.72-6.44,4.18-7.48,5.01-7.84,6.29-33.19,29.88-41.12,30.89-8.54,1.09-14.29-5.46-19.38-11.45-2.54-2.99-16.7-23.83-16.88-26.15-.11-1.38.9-2.44,2.25-2.24,1.88.27,14.69,10.68,18.12,11.91l1.51-2.48c-21.48-20-41.08-45.78-64.01-64.02-30.69-24.42-83.08-37.5-79.06,20.06,1.54,22,16.77,48.91,29.23,66.77,2.89,4.14,21.87,26.41,21.79,28.19-.05,1.11-1.7,1.46-3.04,1.08-8.84-2.49-18.68-20.84-17.93,4.91,0,.87-2.06.66-2.48.48-3.61-1.55-28.12-51.87-30.99-59.01-11.56-28.73-25.16-72.87,5.14-94.8,38.32-27.73,91.68,23.6,123.41,43.24,25.85,16,47.36,25.97,77.9,14.07,3.54-1.38,22.21-11.75,23.5-11.49,4.1.84-4.3,14.64,1.51,17.5,11.06,5.44,40.35-18.47,46.04-27.97,4.01-6.69,2.39-14.69,8.72-18.28,7.54-4.27,29.91-9.57,39.23-11.77,13.36-3.15,26.93-5.18,40.46-7.42.8.62,1.81,1.2,1.53,2.4-.65,2.9-12.83,13.11-11.59,17.56s22.41,22.34,26.05,28.02l3.84.81,27.61-28.56c.97-3.71-12.81-13.58-10.9-19.29,15.87,1.25,31.75,4.43,47.21,8.29,7.56,1.88,27.95,6.74,33.72,10.28,4.74,2.91,3.13,7.44,4.57,11.43,4.97,13.75,23.81,28.99,37.53,33.47,19.98,6.52,10.72-5.53,11.48-17.48,16.05,8.52,34.18,18.53,53.02,18.06,52.23-1.29,106.81-82.24,157.48-69.56,59.54,14.9,25.5,96.11,7.54,131.55-5.11,10.08-11.28,21.07-18.05,29.95l-3.54-14.96c-2.2-1.59-12.73,6.9-15.46,7.95-.51.16-1.13-2.09-1.09-2.53.18-1.95,15.81-21.32,18.42-25.14,16.28-23.8,40.52-67.72,24.38-96.01-12.86-22.54-42.2-11.6-59.86-1.48s-31.72,26.71-46.35,40.65l-30.97,33.04c-.3,1.37.07,1.89,1.47,1.47,3.98-1.19,17.16-11.46,19-10.98.54.14,1.81,1.61,1.51,2.48-7.09,8.32-19.47,34.19-29.96,37.05-9.15,2.5-19.53-7.27-26.49-12.57-7.85-5.98-16.63-15.51-24.52-20.48-1.32-.83-1.91-2.02-4.02-1.47-.88.81,10.28,18.84,11.58,20.91,14.61,23.28,32.88,46.27,53.4,64.6,4.94,4.41,21.43,18.3,26.61,20.39,6.84,2.77,23.7-1.56,31.17-3.64,8.06-2.25,16.91-5.77,24.26-9.74,3.43-1.85,15.53-11.29,16.51-11.51,5.57-1.25-1.93,11.98-3.01,14.01-3.49,6.56-8.55,13.97-13.49,19.51-8.86,9.92-27.01,21.03-28.94,35.06-1.6,11.64,9.83,38.68,13.41,51.42,19.52,69.57,18.12,153.53-20.33,216.67-4.6,7.55-10.27,18.13-20.18,18.33-.88,3.48,3.14,1.08,4.58,2.93,1.01,1.31.15,2.55-.36,3.77-1.19,2.87-9.2,12.57-11.7,15.31-1.23,1.34-9.31,9.99-10.01,9.99-6.37,0-26.59,1.26-31,0ZM910.66,691.36c-7.35.11-20.3,6.07-26.14,10.66-6.26,4.93-16.64,17.36-3.3,20.33,9.88,2.2,29.27-12.97,34.77-20.85,4.11-5.88,1.88-10.25-5.34-10.14ZM1009.74,691.17c-14.78,2.91,8.18,21.93,13.59,25,7.76,4.41,28.74,12.84,24.19-4.2-2.52-9.43-28.98-22.53-37.79-20.8ZM929.65,763.64c4.69-4.34,8.71-14.82,9.35-21.15.53-5.31,1.49-30.37-8.93-21.93-5.89,4.77-12.69,23.43-13.07,30.98s4.48,19.67,12.65,12.1ZM988.7,719.13c-9.21,2.33-2.94,30.59.43,37.25,7.61,15.08,16.68,9.76,16.66-4.88,0-6.54-8.66-34.51-17.09-32.37ZM878.78,737.29c-6.93.75-16.51,4.74-22.1,8.89-3.42,2.53-11.63,9.47-4.91,12.56,7.63,3.51,21.31-3.19,27.57-7.9,7.24-5.46,15.45-15.28-.55-13.54ZM1037.64,737.15c-7.82,2.58,8.58,15.25,11.69,17.02,4.97,2.82,26.11,11.42,24.27-.21-1.47-9.26-27.97-19.45-35.96-16.81ZM962.98,744.01c-1.5-.36-1.6.21-2.43,1.05-3.71,3.76-11.06,16.21-13.73,21.27-2.11,4.03-6.89,12.95-6.87,17.19.03,4.73,19.64,31.03,22.43,30.44,1.61-.34,19.08-23.08,20.05-26.01,4.21-12.72-14.32-32.68-19.46-43.94ZM897.72,758.2c-12.74,2.9-28.24,38.06-12.78,47.37s22.17-13.11,22.5-25.07c.2-7.15.67-24.66-9.72-22.3ZM1021.74,758.17c-7.35,1.51-5.62,13.75-5.74,19.31-.18,7.92-1.02,11.41,2.62,19.4,5.72,12.58,22.85,14.63,25.96,1.18,2.83-12.26-8.48-42.84-22.83-39.9ZM1136.99,772.01c-1.4-.72-2.67.63-1.99.98,1.4.72,2.67-.63,1.99-.98ZM846.92,776.08c-.27-.39-7.04-1.97-8.31-1.97-7.71.01-32.48,7.72-29.45,18.18,1.7,5.85,16.63.84,20.82-.8,3.56-1.4,20.34-10.49,16.94-15.41ZM1080.72,774.23c-10.51,2.33,1.94,11.23,5.97,13.58,4.79,2.79,27.27,13.17,27.23,2.69-.04-9.58-25.12-18.06-33.2-16.27ZM1001.76,817.25c-3.68-4.02-8.5,7.83-9.52,10.49-3.12,8.09-6.01,23.98-2.58,32.04,1.98,4.65,8.39,1.29,10.78-1.83,5.04-6.6,6.36-18.28,5.45-26.34-.25-2.21-3.04-13.17-4.13-14.36ZM922.7,817.14c-5.65,1.63-6.16,20.39-5.59,25.25.74,6.3,5.2,21.14,13.37,19.64,7.63-1.4,3.7-24.59,2.23-30.23-1.06-4.06-4.71-16.18-10.01-14.66ZM856.8,818.3c-16.12,1.45-53.19,13.62-50.4,34.72s35.82,8.47,47.27,2.15c20.09-11.09,48.65-40.98,3.13-36.87ZM1052.76,818.26c-8.84,1.29-14.54,7.89-8.76,16.24,9,13.01,40.35,31.79,56.38,30.4,6.16-.53,13.49-3.68,14.55-10.46,4.09-26.1-42.52-39.05-62.17-36.18ZM960.17,831.19c-.43.25-4.13,7.56-4.65,8.83-3.58,8.85-4.31,17.99-3.56,27.52.93,11.7,9.47,32.33,17.51,11.44,5.13-13.32,3.82-28.84-2.31-41.65-1.25-2.62-3.13-8.37-7-6.14ZM859.99,1148c4.26-31.8,26.14-58.09,28-90.51,3.26-57.03-47.96-90.43-18.53-151.53,5.41-11.24,31.02-45.07,2.15-41.84-12.12,1.35-24.51,11.84-32.12,20.88-28.23,33.54-1.47,52.08,13.02,82.01.56,1.16,2.38,3.51-.03,4.01-1.24.26-18.2-7.86-21.96-9.02-29.13-9-49.96-.5-78-3-8.88-.79-16.44-4.76-24.51-7.98,3.3,9.19,12.71,16.91,21.12,21.37,3.52,1.86,7.9,2.67,11.21,4.79,6.93,4.43,10.3,18.11,15.25,25.75,15.37,23.75,38.23,27.64,59.32,42.68,23.39,16.68,18.68,32,20.08,57.92.67,12.49-.57,31.46,2.98,43.03.44,1.43-.58,1.75,2.02,1.47ZM1197,950.01c-8.4,3.16-16.35,8.1-25.51,8.98-33.26,3.22-53-7.75-87.46,6.54-2.23.93-11.84,6.47-12.54,6.44s-2.05-2.01-1.06-3.02c6.66-15.62,26.58-38.42,25.6-55.49-1.02-17.85-15.21-35.18-30.12-43.88-7.81-4.56-28.89-12.09-27.92,2.89.75,11.72,16.77,32.27,21.27,45.76,17.6,52.66-29.33,90.96-23.26,143.26,3.63,31.29,24.24,57.36,29,88.5l2.72-9.77c3.25-22.67-3.2-64.83,8.64-82.36,16.17-23.92,54.6-25.71,74.05-58.95,3.47-5.92,6.81-18.74,12.32-21.68,2.83-1.51,7-2.06,10.31-3.69,10.04-4.95,18.93-13.55,23.96-23.53ZM824,947.99c.45-1.73-.72-2-1.49-3-4.83-6.31-13.78-13.11-15.26-21.73-3.32-19.27,26.81-48.02-14.24-35.76-12.68,3.79-42.01,18.84-46.07,31.93-1.67,5.38-2.01,13.61,2.55,17.58,8.54,7.43,39.9,5.74,52,7,7.58.79,15.02,2.77,22.51,3.98ZM920.05,884.05c-.65.45-3.74,9.89-3.94,11.56-.49,4.1-.41,10.52.15,14.63.7,5.21,6.52,22.14,13.08,21.55,9.06-.81,3.12-26.73,1.17-32.8-.88-2.72-6.47-17.72-10.46-14.94ZM998.65,929.64c8.68-7.46,10.25-29.62,7.07-39.86-1.17-3.75-2.81-8.04-6.58-4.15-6.12,6.31-11.07,30.21-10.04,38.78.75,6.25,3.87,10.12,9.56,5.23ZM1099,947.99c8.51-1.07,16.96-3.14,25.51-3.98,11.24-1.1,38.64.17,47-6s6.12-16.21.47-23.48c-9.39-12.1-29.59-23.66-44.21-27.79-4.45-1.26-16.61-5.06-19.29.25-2.33,4.61,7.96,23.65,8.46,30.65.91,12.66-12.17,20.55-17.94,30.35ZM717.7,903.18c-.61.19-6.27,4.88-7.23,5.79-7.6,7.16-22.09,28.85-17.2,39.26,3.97,8.46,13.82-5.11,16.56-8.9,4.32-5.98,8.68-14.22,10.69-21.31,1.34-4.72,5.52-17.39-2.82-14.84ZM1201.65,903.12c-2.86.93-.24,9.66.43,12.3,2.22,8.78,14.14,33.85,23.67,35.4,8.25,1.35,4.73-12.92,3.3-17.38-2.39-7.45-12.04-20.9-18.04-25.96-2.52-2.13-5.98-5.47-9.37-4.37ZM963.9,909.1c-.46-.31-2.15-.26-2.74.09-1.06.62-5.9,11.77-6.61,13.85-5.28,15.39-6.11,33.25-2.05,48.97.91,3.51,4.78,14.81,6.6,17.39,4.83,6.86,9.46-6.79,10.65-10.16,6.06-17.15,6.1-38.57.27-55.76-.64-1.9-5.47-13.95-6.12-14.38ZM722.99,962c-12.43,16.34-20.7,35.92-22.98,56.51-3.11,28.05-1.88,50.99,20.47,70.52,26.28,22.98,61.37,18.28,88.43-.62.96-.67,7.42-4.64,5.11-5.92-1.78-.99-13.97-1.08-17.4-1.6-24.79-3.81-48.18-12.82-62.85-34.15-17.38-25.26-14.88-55.73-10.78-84.73ZM1201.01,963c1.07,32.23,6.87,62.61-15.5,89.01-18.83,22.23-46.82,28.67-74.88,30.12-2.52,1.38-1.33,1.8.45,3.29,18.19,15.29,50.56,23.69,73.18,15.34,20.64-7.62,39-28.85,40.78-51.22,2.4-30.27-5.49-62.47-24.03-86.54ZM681.99,984c-1.79-.39-1.97.53-2.83,1.66-7.24,9.53-12.32,38.08-11.15,49.83,1.76,17.64,15.2,17.71,16.98,0,1.68-16.68-1-34.96-2.99-51.48ZM1251.71,1047.7c2.34-1.96,4.04-11.93,4.27-15.21.84-11.96-2.82-28.32-7.81-39.16-.49-1.07-4.37-10.23-6.17-8.32-2.16,15.97-4.85,35.34-2.89,51.38.69,5.68,5.75,17.05,12.6,11.31ZM806,1040.99c-15.03-10.55-29.88-18.24-41.42-33.07-.84-1.08-5.08-9.63-6.58-7.91-4.53,28.38,24.59,39.94,47.99,40.98ZM1164.99,1001c-1.57-1.44-1.73.57-2.27,1.26-14.74,18.91-22.23,22.58-41.41,35.54-1.28.87-2.73,1.13-2.3,3.19,18.92.4,46.42-11.92,47.08-33.5.04-1.23-.53-5.98-1.1-6.49ZM742,1166.99c.41-1.82-.55-1.96-1.67-2.82-8.63-6.71-15.48-9.81-23.3-18.7-20.33-23.1-22.63-42.69-30.33-70.68-.28-1.03-.25-3.03-1.68-2.79-6.42,18.46-10.95,37.57-7.74,57.22,5.39,33.02,33.24,47.89,64.72,37.76ZM1182,1165.01c-1.16,1.69,12.15,4.72,13.6,4.88,25.39,2.84,46.4-12.69,51.12-37.67,3.94-20.83-1.7-40.49-7.74-60.22l-11.22,39.26c-9.02,22.07-24.09,42.97-45.76,53.75ZM723.01,1119c.92,6.61,8.3,13.22,13.87,16.62,18.04,11.03,19.84-2.8,5.06-11.06-5.78-3.23-12.54-4.3-18.93-5.56ZM1201,1119.01c-8.32,1.15-24.91,6.23-27.36,15.22-1.73,6.35,3.15,5.48,7.35,4.28,9.07-2.6,17.41-10.36,20-19.5ZM698.99,1183.99c.72-1.4-.63-2.67-.98-1.99-.72,1.4.63,2.67.98,1.99Z"/>
  <path class="cls-8" d="M1205.01,1270.02c.51-.69,12.97-5.36,15.67-6.85,6.55-3.61,11.9-9.23,18.88-12.12,21.51.28,43.07.85,64.44,2.94.14-1.54-2.53-1.7-3.6-1.88-16.76-2.96-34.03-4.03-50.93-6.07-5.1-.62-3.36-3.04-1.47-6.55,5.43-3.35,15.05-21.93,19.25-23.74,8.11-3.5,29.16,2.97,38.74,1.24l-32.44-6.04c-1.02-.11-2.18-.48-2.51-1.55-.54-1.75,12.24-28.86,13.98-33.88,18.63-53.97,18.44-115.94,6.3-171.34-4.16-18.98-12.98-40.77-15.87-59.13-.85-5.41-.94-7.54,1.73-12.37,10.67-19.33,28.77-41.42,41.24-60.76,25.49-39.56,69.67-106.05,69.67-153.42s-31.84-79.41-78.57-76.49c-50.8,3.17-78.35,42.75-118.84,65.16-41.37,22.9-76.19-5.69-113-22.35-75.7-34.26-143.02-40.87-220.04-4.68-41.88,19.68-75.83,53.77-126.31,27.03-47.79-25.31-86.91-85.92-152.31-59.65-56.62,22.74-47.68,89.61-26.88,134.84,24.65,53.58,64.42,104.96,96.93,154.06l1.02,3.07c-10.28,38.55-23.35,76.67-25.13,116.96-1.92,43.32,1.21,83.1,16.29,123.79,1.49,4.01,12.08,26.63,11.66,28.09s-2.38,1.96-3.69,2.38c-9.12,2.92-21.77,3.23-31.44,5.57-1,.24-3.01.29-2.77,1.7l32.5-2.98c7.48-.31,7.51-.64,12.47,4.51,6.94,7.22,12.43,16.26,18.98,23.85-.81,1.46-1.82,2.24-3.49,2.58-12.07,2.47-26.48,1.87-38.82,4.18l-15.64,2.85,64.45-1.94c13.06,9.08,25.45,19.58,42.54,18.96.95,2.66-5.04,2.86-6.51,2.98-23.86,1.94-48.05,1.66-71.98,4.02-21.72,2.14-43.28,6.52-64.81,8.81-1.05-.27-1.54-1.08-2.17-1.84-4.07-4.94-11.55-22.48-14.71-29.29-45.91-99.07-69.97-238.5-82.7-347.3-9.49-81.08-13.82-164.09-5.08-245.33,159.81-42.76,319.59-86.23,481.46-121.04,161.07,35.49,320.79,76.92,479.47,121.52,2.17,1.85,2.61,9.63,3.02,12.98,4.56,37.83,3.31,77.1,2.02,115-3.36,98.53-17.82,196.33-38.5,292.5-15.07,70.09-33.27,140.54-69.18,202.85-21.63-2.76-43.12-6.66-64.84-8.85-16.5-1.67-33.46-2.92-50-4-4.88-.32-11.59.78-15.98-.02-1.5-.27-3.45-1.7-2.5-2.97ZM1221.99,664.01c-86.98-21.49-173.67-44.39-261.39-62.9-86.98,19.32-173.59,40.4-259.61,63.39,17.67,12.13,36.2,32.11,58.63,34.38,37.61,3.8,60.98-20.28,92.02-34.74,78.06-36.35,147.36-31.9,225.04,1.68,41.8,18.07,82.3,54.12,124.64,13.99l20.68-15.8ZM1313.95,1200.97c17.11-44.5,27.94-91.14,37.74-137.77,19.25-91.55,32.32-184.53,36.3-278.19l-12.82,25.67c-25.28,44.83-53.39,87.99-83.02,130.04,16.66,55.22,28.7,111.61,23.84,169.78-2.46,29.47-9.73,58.77-20.99,85.99.34,1.73,16.02,3.21,18.95,4.49ZM630,1196.99c-5.49-12.31-10.33-25.69-13.72-38.77-11.77-45.45-11.4-104.53-1.98-150.41,4.6-22.37,11.84-44.09,17.42-66.19-29.69-42.51-58.19-85.89-83.91-130.95l-12.82-24.67c2.39,75.23,11.8,150.24,25.3,224.18,11.63,63.7,25.19,128.57,47.79,189.22.49,1.03.99,1.46,2.17,1.41,5.35-.24,13.66-4.28,19.72-3.83Z"/>
  <path class="cls-8" d="M1279.87,1375.11c.5,1.34.16,2.6-.42,3.84-1.29,2.79-8.94,11.36-11.48,14.52-69.12,85.88-168.04,160.66-270.01,202.99-6.33,2.63-31.6,13.56-36.47,13.56-3.74,0-14.48-4.72-18.75-6.28-105.75-38.55-221.93-124.31-290.71-213.29-2.7-3.49-11.55-12.25-7.42-15.34,3.52-2.64,13.45-6.78,18.02-8.97,29.26-14.03,63.71-26.7,95.14-34.86,5.89-1.53,19.7-6.01,24.74-4.35,3.3,1.09,10.67,6.99,7.04,10.11-16.29,8.6-33.04,16.29-48.28,26.73-18.21,12.47-32.8,28.2-48.31,43.69l-7.97,10.52c.73.71,5.51-3.25,6.47-4.02,30.6-24.6,57.68-42.74,94.56-57.44,5.4-2.15,16.79-7.64,22.01-6.08,2.3.69,11.52,6.48,9.51,9.58-.65,1-16.76,10.53-20.01,13.01-25.21,19.21-43.74,45.58-55.53,74.95l22.48-28.01c15.7-15.38,33.52-28.65,52.84-39.16,4.87-2.65,23.77-12.85,27.94-11.65,6.02,1.72,3.32,16.73,3.74,22.32,3.08,40.84,29.22,65.54,58.5,90.5-.74-8.71-3.56-17.08-2.5-26,3.95-.74,5.6,2.05,7.97,4.53,7.87,8.26,13.26,20.56,20.53,29.47,2.18-3.77-.49-18.64,6.49-14.49l22.5,41.47c4.19-6.23,16.49-39.04,21.51-41.53s4.44,10.02,5.48,11.57c3.01,4.46,5.29-4.04,6.71-6.32,2.47-3.97,17.81-27.47,21.29-26.69,4.68,7.26.29,17.86-1.28,25.71-.3,1.5-.87,2.66,1.28,2.27,26.51-25.5,53.88-46.75,56.5-86.5.37-5.54-1.2-20.45.95-24.05,3.77-6.31,17.07,1.55,22.08,4.04,32.63,16.2,62.26,39.41,82.97,69.52-9.63-25.93-26.78-50.68-48.52-67.97-8.47-6.74-18.41-11.43-26.43-18.59-.36-1.35.76-1.66,1.61-2.28,1.55-1.14,10.09-6.46,11.33-6.72,2.85-.61,19.05,6.48,22.99,8.1,24.82,10.24,48.34,23.34,70.35,38.65l27.68,21.81-8.48-11.01c-27.68-30.29-58.78-55.07-97.51-70.01-.95-1.34,7.52-10.88,9.02-11.51,3.43-1.44,57.76,15.81,65.49,18.51,24.84,8.67,48.85,19.42,72.36,31.13ZM775.01,1434.98c6.63,3.94,12.44,10.01,18.52,14.99,49.8,40.79,107.84,74.37,167.8,97.77,55.7-21.44,108.42-51.94,155.57-88.35,8.91-6.88,20.13-15.21,28.11-22.88.91-.88,3.16-2.5,2.92-3.87-.39-2.27-18.42-17.12-21.59-19.47-7.6-5.62-16.79-11.3-25.04-15.96-1.23-.7-9.91-5.63-10.29-5.2.83,34-18.02,59.08-40.49,82.04-4.92,5.03-20.04,19.98-25.16,22.81-2.66,1.47-5.78,2.3-8.85,2.23-3.34-.08-8.21-2.86-9.01-2.8s-6.4,6.6-9.76,7.93-10.15.86-10.72,1.22c-2.46,1.52-7.08,17.04-10.01,21.06-5.33,7.33-14.36,10.02-22.69,5.7-9.3-4.81-13.83-24.03-15.44-25.06-.98-.63-6.16.09-8.28-.22-7.78-1.13-12.39-9.86-13.23-9.99-4.11-.65-8.27,4.64-17.25.47-6.03-2.8-24.21-20.71-29.62-26.38-20.67-21.68-37.36-47-38.49-78.01-16.34,7.64-33.6,18.36-47.01,30.49-1.58,1.43-10.91,10.18-9.98,11.5ZM684.99,1419.01c-1.4-.72-2.67.63-1.99.98,1.4.72,2.67-.63,1.99-.98ZM1241.99,1420.01c-1.4-.72-2.67.63-1.99.98,1.4.72,2.67-.63,1.99-.98Z"/>
  <path class="cls-16" d="M999.01,1450c-.81-.55-1.85-16.31-2.3-19.21-.19-1.22-.25-5.59-2.2-4.78-6.28,2.62-18.43,28.65-20.16,29.04-1.3.29-2.93.06-3.86-1.05s-7.79-21.29-9.48-20c-3.34,6.77-5.55,14.11-8.55,21-.36.82-.27,2.82-1.95,1.99-3.86-1.91-16.32-31.89-22-32l-3.55,24.98h-3.28c-5.81-5.12-10.86-11.35-16.67-16.49-11.02-9.74-31.19-22.05-36.77-35.23-2.29-5.4-5.19-20.24-2.75-25.26,1.53-3.14,7.5-1.64,10.75-2.25,16.95-3.19,27.6-12.25,42.08-17.92,12.98-5.07,20.19,4.29,31.87,7.47,10.85,2.96,17.69,2.05,28.07-1.54,9.44-3.26,16.5-10.33,26.97-6.5,12.29,4.49,21.34,12.4,36.34,16.66,14.85,4.22,19.74-1.08,17.43,19.58-1.99,17.77-24.55,31.2-37.02,41.98-5.29,4.57-14.66,15.48-19.43,18.56-1.21.78-2.01,1.26-3.54.95Z"/>
  <path class="cls-8" d="M612.01,1336l-27.01-47.99c27.44-3.14,54.86-4.97,82.48-6.02,27.13-1.03,63.59-3.54,90.06-.04,5.9.78,9.76,9.21,3.46,11.57-8.01,3-23.89,3.88-33.22,5.78-39.92,8.12-78.55,20.34-115.78,36.71Z"/>
  <path class="cls-8" d="M1192.79,1280.29c40.78-.71,95.56.56,135.58,6.83,1.87.29,8.32.9,8.63,2.39.49,2.36-21.12,37.59-24.18,41.8-.9,1.24-2.34,3.68-4.13,3.52-39.37-17-81.24-29.67-123.48-37.54-5.07-.94-19.84-1.93-23.16-3.84-4.19-2.41-1.89-9.04,2.01-10.9,1.59-.76,5.56-1.37,7.46-1.54,6.23-.56,14.82-.61,21.28-.72Z"/>
  <path class="cls-8" d="M759.79,1306.3c3.27-.17,6.75-1.17,9.78.63,2.24,1.34,4.97,6.04,1.39,7.53-46.58,11.59-90.54,33.5-130.62,59.44l-24.19-32.64c-.77-2.8,1.62-3.13,3.58-4.04,30.2-14.11,106.35-29.17,140.06-30.93Z"/>
  <path class="cls-8" d="M1154.69,1306.19c3.96-1.2,19.43,1.27,24.68,1.94,34.24,4.33,72.41,12.57,105.4,22.6,5.06,1.54,16.67,4.21,20.54,6.46,1.08.63,1.75.77,1.73,2.28-.04,3.28-20.33,29.05-23.73,33.44-1.67.42-25.55-14.81-29.64-17.09-21.93-12.18-44.86-22.87-68.42-31.58-8.46-3.13-24.16-6.39-30.95-10.05-4.43-2.39-3.47-6.84.39-8.01Z"/>
  <path class="cls-16" d="M734.01,1271.99c-.73-2.78,2.48-4.51,2.84-6.71.97-5.8-15.02-12.83-12.84-15.28l31.54.95c6.65-1.45,4.91,17.33,3.46,18.56-3.75,3.19-19.41.29-25.01,2.48Z"/>
  <path class="cls-16" d="M1190.99,1269.03c.21,1.08-.02,1.89-.97,2.49-1.69,1.08-21.12-1.27-25.02-1.04-2.08-.9-1.38-8.67-1.03-11.01,1.15-7.72,4.49-7.86,11.54-8.46,2.97-.25,21.41-1.25,22.52-.55,3.34,2.12-5.41,6.42-7.05,8.01-3.71,3.61-6.17,8.08,0,10.55Z"/>
  <path class="cls-12" d="M1456,430.01l16.41-63.1c4.29-3.27,21.21,1.84,26.81,3.38,4.85,1.33,16.85,3.1,17.78,8.26l-45.42,173.53c-2.05,2.57-4.91,2.15-7.83,1.69-5.72-.9-28.25-7.34-33.29-9.71-4.55-2.15-3.78-4.74-3.21-9.31l19.76-71.73-10.91-1.93-21.09,75.41c-2.48,1.92-5.31,1.69-8.25,1.27-3.58-.51-32.87-9.3-34.3-10.7-2.44-2.4-1.47-6.11-.99-9.12l44.02-165.98c1.71-1.74,8.15-1.05,10.78-.71,5.3.69,24.73,5.58,29.32,7.68s5.06,5.84,4.2,10.32l-14.49,57.3c.29,1.55,10.05,4.13,10.73,3.45ZM1453.9,364.09l-33.86-8.06-44.05,166.96,34.89,8.9,20.61-76.9c.44-.83,1.06-.93,1.92-.95,5.24-.12,14.68,5.25,20.59,4.98l-21.07,79.38,34.49,9.68,44.35-167.61c-.18-1.01-1.39-1.2-2.18-1.53-4.24-1.82-24.61-7.1-29.34-7.73-1.14-.15-2.25-.53-3.31.23l-15.94,65.58c-1.13,1.15-21.9-4-22.58-4.94-.53-.72-.53-1.61-.41-2.45l15.89-65.52Z"/>
  <path class="cls-13" d="M1455.99,410.99c-2.05-.06-.52-6.93,1-6.99l-1,6.99Z"/>
  <path class="cls-13" d="M1458.99,399h-.98c-.5-4.16,1.48-4.16.98,0Z"/>
  <path class="cls-13" d="M1459.99,395h-.98c-.5-4.16,1.48-4.16.98,0Z"/>
  <path class="cls-13" d="M1460.99,391h-.98c-.5-4.16,1.48-4.16.98,0Z"/>
  <path class="cls-13" d="M1454.99,415h-.98c-.5-4.16,1.48-4.16.98,0Z"/>
  <path class="cls-13" d="M1457.99,403h-.98c-.5-4.16,1.48-4.16.98,0Z"/>
  <path class="cls-12" d="M1190.27,449.74c3.49,3.8,7.96,1.28,8.46-3.51l19.81-141.2c1.78-4.01,8.23-3.23,12.01-3.07,4.23.17,28.94,3.27,31.43,4.57,2.92,1.52,2.16,7.03,2.01,9.97-1.64,31.3-9.46,71.98-14.12,103.87-1.95,13.36-3.45,36.98-10.04,47.96-4.66,7.76-19.13,17.88-28.26,17.72-14.14-.25-33.18-7.15-47.84-8.26-32.76-18.75-17.85-57.31-14.28-87.64,3.28-27.82,6.21-56.48,9.64-83.46,1.64-12.91,1.12-14.4,15.4-13.67,4.07.21,29.37,3.49,31.09,4.91.84.69,1.3,1.52,1.4,2.6-4.01,48.79-11.52,97.44-17.8,146.03.01,1.12.33,2.35,1.09,3.18ZM1202,302.01l-36-4.01c-5.32,48.22-10.53,96.56-18.07,144.51-.21,13.12,11.5,27.76,24.03,31.04,6.51,1.7,32.63,6.37,38.56,6.26,12.88-.25,27.27-14.01,29.02-26.76l19.46-142.04c-10-.05-20.77-3.47-30.54-4.02-1.5-.08-4.11-.39-5.02.95-.66.97-1.83,12.44-2.14,14.86-5.29,41.72-11.31,84.65-17.57,127.44-3.87,11.97-21.5,7.24-19.8-4.75l18.06-143.47Z"/>
  <rect class="cls-13" x="1207.01" y="346.01" width=".98" height="6.99"/>
  <rect class="cls-13" x="1208.01" y="338.01" width=".98" height="6.99"/>
  <path class="cls-1" d="M1315.85,477.84c1.85-1.15,8.49-31.63,7.72-34.84-2.69-11.31-37.2-25.69-43.09-46.98-3.36-12.14,1.69-46.7,9.1-56.93,11.9-16.43,31.12-17.59,49.79-14.96,26.7,3.76,48.47,18.4,45.35,48.1-.48,4.58-3.49,21.3-4.98,25.02-1.61,4.02-6.41,2.85-9.97,2.47-7.02-.75-23.45-3.86-30-5.99-10.86-3.52.1-22.85-.67-31.25-.32-3.46-3.91-5.82-6.67-3.58-2.4,1.94-6.83,24.77-5.98,28.11,1.64,6.46,21.12,18.65,27.03,24.01,24.37,22.11,18.48,41.83,11.04,70.98-5.27,20.63-19.28,33.6-41.75,30.73-6.82-.87-36.52-7.51-42-10-7.8-3.55-17.89-18.53-18.75-27.25-.96-9.68,2.3-34.12,5.67-43.31,1.98-5.39,4.42-5.52,9.7-5.06,6.07.53,26.2,4.37,31.63,6.37,3.82,1.41,4.09,3.24,4.06,7.01-.07,8.07-6.97,26.72-5.91,32.76.6,3.43,6.08,6.21,8.69,4.58ZM1340,387.99c9.87.41,21.13,5.29,30.65,5.94,1.39.09,2.94.47,3.89-.89.63-.9,4.11-19.22,4.34-21.66,2.27-23.76-14.85-36.04-36.05-40.7-40.18-8.84-54.68,10.32-57.81,47.84-1.07,12.83,2.48,22.37,11.44,31.53,8.75,8.96,33.26,21.6,33.35,34.44.03,4.09-5.66,30.53-7.41,34.4-4.32,9.54-20.62,5.18-21.35-5.51-.36-5.25,7.69-32.48,5.92-34.35-9.58-.26-21.5-5.61-30.6-5.99-1.14-.05-2.17-.23-2.89.92-1.92,15.53-9.57,30.79-4.19,46.25,2.09,6.02,10.42,15.07,16.49,17.52,4.94,1.99,38.21,10.16,42.47,10.01,9.35-.34,19.81-6.23,25.2-13.81s12.51-42.81,11.55-52.43c-1.05-10.53-8.07-18.69-15.46-25.54-8.23-7.62-28.44-18.21-29.48-29.6-.31-3.35,3.87-24.06,5.26-27.58,2.77-7.03,10-8.93,16.24-4.84,7.91,5.2-.45,26.19-1.54,34.03Z"/>
  <path class="cls-1" d="M1070.05,385.04l-7.97,76.53c-1.65,1.99-5.18,1.55-7.62,1.47-10.72-.39-22.07-3.2-32.94-3.06-5.28-1.54-4.7-5.85-4.51-10.47,1.02-24.35,5.05-50.46,6.98-75.01,2.24-28.58,2.84-58.68,6.02-86.98,1.43-12.69,3.24-10.98,15.53-10.55,8.6.3,19.25,1.26,27.95,2.05,21.47,1.96,50.93,3.98,57.81,29.19,2.69,9.85.77,41.58-3.9,50.69-1.7,3.33-9.43,9.82-9.44,11.6,0,.66,5.71,8.1,6.82,11.22,4.54,12.88-.15,50.49-1.78,65.77-.37,3.43-1.55,17.34-2.89,19.11-1.68,2.2-10.49,1.53-13.59,1.39-7.15-.33-21.23-1.54-27.95-3.05-5.16-1.16-3.73-8.97-3.55-13.43.52-12.58,3.08-25.43,3.98-38.02.44-6.09,1.7-15.35,1.02-21.01-.67-5.6-4.81-7.48-9.97-7.44ZM1105,368.01c13.33-1.76,19-13.66,20.72-25.78,1.91-13.42,3.49-32.52-6.28-43.16-16.62-18.1-60.89-13.11-83.44-17.06l-12.89,171.9,34.88,4.11,6.01-76.5c.32-3.28,3.91-2.65,6.48-2.49,7.63.47,14.99,2.93,15.41,11.6l-5.88,69.39,36.01,3.01c.79-24.18,5.28-48.18,4.88-72.39-1.04-7.08-4.18-11.95-9.41-16.59-1.18-1.05-7.97-4.37-6.47-6.02Z"/>
  <path class="cls-12" d="M708,409l10.8,75.29c-.84,2.02-2.35,2.97-4.32,3.69-4.74,1.72-26.27,5.32-32.07,5.92-3.23.33-6.85.96-8.85-1.94-1.7-2.46-4.48-22.92-5.28-27.72-7.08-42.66-13.6-85.98-19.14-128.86-.63-4.91-3.03-18.99-1.93-22.67.29-.98.91-1.71,1.82-2.17,23.53-2.47,48.76-9.62,72.46-7.51,11.09.99,22.28,6.17,28.34,15.66,5.16,8.07,9.16,31.97,9.26,41.81.08,8.03-2.96,17.7-9.06,23.02,7.46,5.38,13.22,11.35,15.51,20.47,5.23,20.81,5.14,45.42,10.47,66.56.22,5.37.17,6.3-4.97,7.99s-33.27,6.28-37.5,5.44c-3.66-.73-3.47-3.73-4.22-6.77-4.66-18.83-4.28-44.4-10-62-2.24-6.87-4.31-6.61-11.3-6.2ZM771.01,472.99l-11.53-68.96c-3.79-11.3-10.99-14.61-21.45-18.53,5.12-3.29,11.4-8.61,13.47-14.51,3.73-10.6-.77-41.2-7.5-50.49-17.18-23.71-66.7-6.52-91.04-5.04l25.1,172.48,34.28-5.12,1.42-1.28-11.74-77.53c15.95-2.26,20.43-2.31,23.69,13.78,4.03,19.87,5.64,41.18,9.3,61.21l36-6.01Z"/>
  <path class="cls-1" d="M603.99,473.99l-11,2c-.95.93,2.89,22.63,3.05,26.46.22,5.42,1.29,10.31-4.56,12.52-4.78,1.8-23.98,6.38-29.08,6.91-2.77.29-8.5.96-9.9-1.89-1.21-2.49-2.16-14.78-2.49-18.51-4.42-49.09-6.69-101.68-7.97-151.03-.15-5.76-4.16-12.43,3.39-15.53,6.23-2.56,36.7-8.33,44.08-8.91s9.56-1.29,12.67,5.29c9.5,20.1,16.9,48.57,24.79,70.21,10.56,28.96,21.42,57.84,32.33,86.67.94,4.78,2.41,9.58-2.76,11.88s-27.44,7.05-33.34,7.66c-4.43.46-6.6.96-8.99-3.46-4.45-8.22-6.72-21.31-10.25-30.27ZM595.96,331.03l-48.96,8.98,10,176.99,34-8.01-4.05-36.33c.27-1.09,19.41-6.28,21.56-3.67,2.16,4.07,9.74,31.41,11.44,32.56,3.12,2.13,29.27-6.9,35.04-6.56l-59.04-163.96Z"/>
  <path class="cls-1" d="M478,471.01l19.55,65.94c1.01,5.25,1.13,7.6-4,10.1-4.73,2.3-25.13,8.56-30.5,9.49-2.88.5-6.98,1.45-9.11-.97-18.02-54.2-32.33-109.58-48.7-164.3-.14-3.4-1.36-8.82,1.2-11.32,1.78-1.75,39.84-12.36,45.35-13.65,25.35-5.99,52.02-8.04,62.99,20.44,5.25,13.61,11.37,37.08,8.77,51.32-3.27,17.94-29.11,30.36-45.55,32.96ZM508.45,450.44c6.13-5.82,10.6-13.18,10.63-21.94s-9.4-41.15-14.64-48.43c-19.35-26.93-69.09.17-94.44,3.94l48.04,166.96c4.4-.13,33.41-8.81,33.84-10.54l-20.79-73.32c12.78-4.15,27.33-7.13,37.36-16.66Z"/>
  <path class="cls-1" d="M848.01,314.01l11.99,146.44c-.18,1.34-.8,2.38-2.02,3.02-2.58,1.35-27.96,4.29-32.48,4.51-4.06.2-10.82,1.08-12.27-3.71-5.37-48.94-8.68-98.15-12.23-147.28-5.73.71-12.78,1.84-18.45,2.04-9.26.33-10.56-3.2-11.41-11.67-.38-3.75-1.23-19.41,1.86-20.88,1.18-.56,7.56-1.28,9.52-1.48,25.41-2.57,55.61-5.22,80.97-6.07,3.26-.11,7.78.38,9.59,3.49s2.91,24.54,1.44,27.57c-1.83,3.76-21.79,2.65-26.5,4ZM854.01,459l-12.01-148.5.44-1.56c3.98-2.39,24.33-.76,26.63-2.37,2.17-1.53-.88-17.11-.5-20.63-1.09-1.57-9.57-1.02-12.05-.93-23.03.82-47.87,4.06-71.02,5.98-3.14.26-6.36-.15-9.49.01l2.11,21.89c1.18,1,22.02-1.43,25.4-1.92l2.31,1.71,13.25,150.24,34.93-3.92Z"/>
  <path class="cls-3" d="M1562,520l26.3-4.85c3.49.8,2.86,6.51,2.58,9.25-14.12,42.81-21.75,91-36.87,133.12-.75,2.1-1.69,6.31-3.44,7.56-2.12,1.52-7.06,1.57-8.68-.48-1.93-2.44-.71-42.2-.86-49.14-.05-2.37-1.03-4.55-1.08-6.92-.37-16.21.43-32.38-.96-48.54-7.01-.27-29.44,11.97-29.05-1.44,12.09-42.43,22.98-85.28,35.55-127.56.9-3.02,4.32-15.88,5.9-17.09,2.58-1.98,9.11-1.59,9.57,2.62l1.03,103.48ZM1556,422.01l-40.01,136.48c-.07,2.61,27.27-7.21,29.02-5.49l2.01,106,38.01-136.5c.15-1.65.13-1.64-1.46-1.46-3.76.44-25.65,7.99-26.55,6.96l-1.01-105.99Z"/>
  <path class="cls-3" d="M369,423h-5s1,5,1,5v106c-.94.99-22.87-5.51-26.55-5.96-1.61-.2-1.61-.19-1.41,1.41l42.96,135.55c.2,1.23-.15,2.71,0,4l4.99-2c-.85,7.28-9.11,6.86-11.5,1l-42.54-138.53c-2.65-14.2,27.61-.94,29.04-2.48-2.07-25.39-.5-51.03-.95-76.54-.04-2.36-1.03-4.55-1.08-6.92-.12-5.43-.82-16.28.07-21.01.99-5.29,10.6-5.05,10.97.47Z"/>
  <path class="cls-6" d="M369,423l43.01,138.49c2.23,17.02-19.02,2.89-28.01,4.51v89.5c0,2.97,1.5,7.17,1,11.5l-4.99,2c-.15-1.28.19-2.77,0-4-4.13-25.48-.2-60.64-.96-87.54-.17-6.11-1.98-12.97-1.03-19.46,2.31.04,29.04,7.66,29.01,5.48l-42.02-135.49-1-5h5Z"/>
  <path class="cls-1" d="M952.01,305c1.84-.31,1.68-2.05,2.12-3.37,1.57-4.61,4.79-24.31,8.56-25.44,11.36,1.1,28.1-2.16,38.78-.16,4.24.79,3.82,4.97,3.44,8.39l-30.68,90.33c-1.61,21.52,1.31,44.46-.2,65.8-.34,4.87-.06,11.8-5.5,12.5-11.49,1.49-26.15-1.17-38.02-.07-2.74-.52-3.24-1.89-3.57-4.43-3-22.58,2.41-51.67-.04-74.96-7.45-27.68-19.79-55.88-26.41-83.59-1.21-5.08-4.32-13.07,2.95-14.04,3.93-.52,38.72-.33,40.55.54,3.78,1.8,6.96,23.57,8.01,28.5ZM941,281h-37l28.92,91.58c.9,25.24-1.04,50.25-.92,75.42,11.97-1.08,24.06-1.76,36,0v-74.5l31-92.5h-32.5l-14.49,48-11.01-48Z"/>
  <path class="cls-14" d="M1453.9,364.09l-15.89,65.52c-.12.85-.12,1.73.41,2.45.69.94,21.45,6.09,22.58,4.94l15.94-65.58c1.05-.76,2.17-.38,3.31-.23,4.73.63,25.1,5.91,29.34,7.73.79.34,2.01.52,2.18,1.53l-44.35,167.61-34.49-9.68,21.07-79.38c-5.91.28-15.35-5.1-20.59-4.98-.87.02-1.48.12-1.92.95l-20.61,76.9-34.89-8.9,44.05-166.96,33.86,8.06Z"/>
  <path class="cls-14" d="M1202,302.01l-18.06,143.47c-1.7,11.99,15.92,16.72,19.8,4.75,6.25-42.79,12.28-85.72,17.57-127.44.31-2.42,1.48-13.89,2.14-14.86.92-1.34,3.52-1.04,5.02-.95,9.78.55,20.55,3.97,30.54,4.02l-19.46,142.04c-1.76,12.75-16.15,26.51-29.02,26.76-5.93.11-32.05-4.56-38.56-6.26-12.54-3.28-24.24-17.92-24.03-31.04,7.54-47.95,12.76-96.29,18.07-144.51l36,4.01Z"/>
  <path class="cls-9" d="M1340,387.99c1.08-7.84,9.45-28.83,1.54-34.03-6.24-4.09-13.46-2.2-16.24,4.84-1.39,3.52-5.57,24.23-5.26,27.58,1.05,11.38,21.26,21.98,29.48,29.6,7.39,6.84,14.41,15.01,15.46,25.54.96,9.61-6.02,44.65-11.55,52.43s-15.86,13.47-25.2,13.81c-4.26.15-37.53-8.02-42.47-10.01-6.07-2.45-14.39-11.49-16.49-17.52-5.38-15.47,2.27-30.72,4.19-46.25.73-1.15,1.75-.97,2.89-.92,9.1.38,21.02,5.74,30.6,5.99,1.77,1.87-6.28,29.09-5.92,34.35.73,10.69,17.04,15.05,21.35,5.51,1.75-3.88,7.44-30.31,7.41-34.4-.1-12.84-24.6-25.49-33.35-34.44-8.96-9.16-12.51-18.7-11.44-31.53,3.13-37.52,17.63-56.68,57.81-47.84,21.21,4.67,38.33,16.95,36.05,40.7-.23,2.44-3.7,20.75-4.34,21.66-.95,1.36-2.5.99-3.89.89-9.51-.65-20.78-5.53-30.65-5.94Z"/>
  <path class="cls-15" d="M1105,368.01c-1.49,1.65,5.29,4.97,6.47,6.02,5.23,4.63,8.37,9.51,9.41,16.59.39,24.21-4.1,48.21-4.88,72.39l-36.01-3.01,5.88-69.39c-.42-8.67-7.78-11.13-15.41-11.6-2.57-.16-6.16-.79-6.48,2.49l-6.01,76.5-34.88-4.11,12.89-171.9c22.55,3.95,66.82-1.04,83.44,17.06,9.77,10.64,8.19,29.74,6.28,43.16-1.72,12.13-7.39,24.02-20.72,25.78ZM1067.5,357c2.68.75,12.3,0,16,0,2.5,0,5.86-8.21,6.24-10.76.84-5.63,2.61-23.55,2.08-28.47-1.18-10.89-13.32-10.88-21.82-10.78l-3.8,47.75c-.32.82.76,2.1,1.31,2.26Z"/>
  <path class="cls-14" d="M771.01,472.99l-36,6.01c-3.66-20.03-5.27-41.34-9.3-61.21-3.26-16.09-7.74-16.04-23.69-13.78l11.74,77.53-1.42,1.28-34.28,5.12-25.1-172.48c24.34-1.48,73.87-18.66,91.04,5.04,6.73,9.29,11.22,39.89,7.5,50.49-2.07,5.9-8.36,11.21-13.47,14.51,10.46,3.92,17.67,7.23,21.45,18.53l11.53,68.96ZM711.69,333.31c-4.17-4.6-15.13-1.43-20.69-1.31l7.01,50c9.16-1.33,20.88-1.22,20.89-13.4,0-5.69-2.57-22.18-4-27.99-.44-1.8-2.08-6.07-3.2-7.31Z"/>
  <path class="cls-9" d="M595.96,331.03l59.04,163.96c-5.77-.34-31.92,8.69-35.04,6.56-1.7-1.16-9.28-28.5-11.44-32.56-2.15-2.61-21.29,2.58-21.56,3.67l4.05,36.33-34,8.01-10-176.99,48.96-8.98ZM600.97,445.95l-25.96-84.95,8.68,86.78c1.56,3.4,13.83-1.34,17.28-1.84Z"/>
  <path class="cls-15" d="M508.45,450.44c-10.03,9.53-24.58,12.51-37.36,16.66l20.79,73.32c-.43,1.73-29.44,10.41-33.84,10.54l-48.04-166.96c25.35-3.77,75.09-30.87,94.44-3.94,5.24,7.29,14.67,39.44,14.64,48.43s-4.5,16.12-10.63,21.94ZM464.01,446c7-2.37,19.4-3.09,20.05-12.52.34-4.87-8.71-36.13-12.09-38.96-4.92-4.12-16.88-.86-21.87,2.05l13.91,49.43Z"/>
  <path class="cls-9" d="M854.01,459l-34.93,3.92-13.25-150.24-2.31-1.71c-3.38.5-24.22,2.93-25.4,1.92l-2.11-21.89c3.14-.16,6.35.25,9.49-.01,23.15-1.92,47.99-5.16,71.02-5.98,2.48-.09,10.96-.64,12.05.93-.38,3.52,2.67,19.1.5,20.63-2.29,1.61-22.65-.01-26.63,2.37l-.44,1.56,12.01,148.5Z"/>
  <path class="cls-13" d="M1556,422.01l1.01,105.99c.9,1.03,22.79-6.51,26.55-6.96,1.59-.19,1.61-.19,1.46,1.46l-38.01,136.5-2.01-106c-1.75-1.72-29.09,8.1-29.02,5.49l40.01-136.48Z"/>
  <path class="cls-13" d="M365,428l42.02,135.49c.03,2.18-26.7-5.45-29.01-5.48-.95,6.49.86,13.34,1.03,19.46.76,26.9-3.18,62.06.96,87.54l-42.96-135.55c-.2-1.61-.2-1.61,1.41-1.41,3.68.45,25.61,6.95,26.55,5.96v-106Z"/>
  <path class="cls-9" d="M941,281l11.01,48,14.49-48h32.5l-31,92.5v74.5c-11.94-1.75-24.03-1.08-36,0-.12-25.17,1.82-50.18.92-75.42l-28.92-91.58h37Z"/>
  <path class="cls-10" d="M1131.64,970.15c6.39-1.26,6.64,10.43,6.34,14.34-2.35,30.03-33.89,45.43-59.9,29.93-7.1-4.23-12.81-6.91-4.47-14.37,6.66,5.31,10.37,9.68,19.16,11.67,26.74,6.07,41.72-13.77,36.46-39.1.17-.89,1.55-2.3,2.41-2.47Z"/>
  <path class="cls-10" d="M1116.66,980.1c4.18-1.37,6.56,3.18,6.12,7.12-1.58,14-14.46,22.07-27.8,18.3-3.56-1.01-15.68-6.31-12.06-11.08,4.08-5.37,14.73,3.2,23.79-1.23,5.66-2.77,7.71-12.38,9.95-13.11Z"/>
  <path class="cls-10" d="M795,970.01c-9.24,28.68,16.41,53.23,44.22,38.71,4.3-2.25,10.82-11.3,14.29-3.69,2.76,6.06-14.56,13.59-19.25,14.72-25.11,6.04-51.15-13.57-48.25-40.25.56-5.19,2.73-10.85,9-9.49Z"/>
  <path class="cls-10" d="M806.85,981.16c.81.5,4.14,9.46,9.43,12.05,10.01,4.89,20.19-5.75,25.63,4.15-8.88,10.66-26.76,12.2-35.9,1.12-2.56-3.1-7.05-13.08-4.59-16.54.8-1.12,4.39-1.42,5.41-.77Z"/>
  <path class="cls-1" d="M1067.5,357c-.55-.15-1.63-1.44-1.31-2.26l3.8-47.75c8.51-.1,20.65-.11,21.82,10.78.53,4.91-1.24,22.84-2.08,28.47-.38,2.55-3.73,10.76-6.24,10.76-3.7,0-13.32.75-16,0ZM1073,352c10.34.73,10.82-5.19,11.87-13.63-.85-10.58,7.02-26.17-9.87-25.37l-2,39.01Z"/>
  <path class="cls-1" d="M711.69,333.31c1.12,1.24,2.76,5.51,3.2,7.31,1.43,5.81,4.01,22.3,4,27.99,0,12.17-11.73,12.07-20.89,13.4l-7.01-50c5.56-.13,16.53-3.29,20.69,1.31ZM703.05,374.96c1.69,1.43,8.64-2.15,9.54-4.91s-1.99-20.38-2.88-24.25c-1.85-7.96-2.61-9.71-11.7-8.8.67,4.67,3.59,36.72,5.05,37.96Z"/>
  <path class="cls-1" d="M600.97,445.95c-3.45.5-15.72,5.23-17.28,1.84l-8.68-86.78,25.96,84.95ZM594,441.99l-7.99-24.99,2,25.99,6-1Z"/>
  <path class="cls-1" d="M464.01,446l-13.91-49.43c4.99-2.9,16.95-6.16,21.87-2.05,3.38,2.83,12.42,34.09,12.09,38.96-.65,9.43-13.06,10.15-20.05,12.52ZM467.74,399.26c-2.24-2.23-7.04.3-9.67.83,2.92,11.14,5.46,25.92,9.81,36.52.45,1.1-.55,1.54,1.6,1.45,3.26-.13,8.53-2.68,8.49-6.42-.04-3.16-8.39-30.55-10.23-32.38Z"/>
  <path class="cls-5" d="M1073,352l2-39.01c16.89-.8,9.02,14.79,9.87,25.37-1.05,8.44-1.53,14.36-11.87,13.63ZM1078.99,343.99l2-23.99c-1.81.37-1.87,1.97-2.03,3.46-.47,4.4-.77,10.42-1.01,14.99-.06,1.17-.7,5.55,1.04,5.54Z"/>
  <path class="cls-5" d="M703.05,374.96c-1.46-1.23-4.38-33.29-5.05-37.96,9.09-.9,9.86.84,11.7,8.8.9,3.87,3.74,21.6,2.88,24.25s-7.84,6.34-9.54,4.91ZM704.99,350.99v-5.99h-.98v5.99h.98ZM705.99,357.99v-5.99h-.98v5.99h.98ZM706.99,364.99v-5.99h-.98v5.99h.98ZM707.99,369c.5-4.16-1.48-4.16-.98,0h.98Z"/>
  <polygon class="cls-2" points="594 441.99 588.01 443 586.01 417 594 441.99"/>
  <path class="cls-5" d="M467.74,399.26c1.84,1.83,10.19,29.22,10.23,32.38.05,3.73-5.23,6.28-8.49,6.42-2.15.09-1.15-.35-1.6-1.45-4.35-10.6-6.9-25.37-9.81-36.52,2.63-.53,7.43-3.06,9.67-.83Z"/>
  <path class="cls-1" d="M1078.99,343.99c-1.73,0-1.1-4.37-1.04-5.54.24-4.57.54-10.59,1.01-14.99.16-1.5.22-3.09,2.03-3.46l-2,23.99Z"/>
  <rect class="cls-13" x="705.01" y="352.01" width=".98" height="5.99"/>
  <rect class="cls-13" x="704.01" y="345.01" width=".98" height="5.99"/>
  <rect class="cls-13" x="706.01" y="359.01" width=".98" height="5.99"/>
  <path class="cls-13" d="M707.99,369h-.98c-.5-4.16,1.48-4.16.98,0Z"/>
</svg>